<svg width="14" height="14" viewBox="0 0 14 14" fill="none" xmlns="http://www.w3.org/2000/svg">
<path fill-rule="evenodd" clip-rule="evenodd" d="M7.00061 0.599998C5.26245 0.599998 5.04432 0.607599 4.36165 0.638666C3.68031 0.669866 3.21523 0.777734 2.8083 0.936002C2.38736 1.09947 2.03029 1.31814 1.67455 1.67401C1.31855 2.02975 1.09988 2.38682 0.935876 2.80762C0.777208 3.21469 0.669207 3.6799 0.63854 4.36097C0.608006 5.04364 0.600006 5.26191 0.600006 7.00006C0.600006 8.73822 0.60774 8.95568 0.638673 9.63836C0.670007 10.3197 0.777875 10.7848 0.93601 11.1917C1.09961 11.6126 1.31828 11.9697 1.67415 12.3255C2.02975 12.6815 2.38682 12.9007 2.8075 13.0641C3.2147 13.2224 3.6799 13.3303 4.36111 13.3615C5.04379 13.3925 5.26179 13.4001 6.99981 13.4001C8.73809 13.4001 8.95556 13.3925 9.63823 13.3615C10.3196 13.3303 10.7852 13.2224 11.1924 13.0641C11.6132 12.9007 11.9697 12.6815 12.3253 12.3255C12.6813 11.9697 12.9 11.6126 13.064 11.1918C13.2213 10.7848 13.3293 10.3196 13.3613 9.63849C13.392 8.95582 13.4 8.73822 13.4 7.00006C13.4 5.26191 13.392 5.04378 13.3613 4.3611C13.3293 3.67976 13.2213 3.21469 13.064 2.80775C12.9 2.38682 12.6813 2.02975 12.3253 1.67401C11.9693 1.31801 11.6133 1.09934 11.192 0.936002C10.784 0.777734 10.3186 0.669866 9.6373 0.638666C8.95463 0.607599 8.73729 0.599998 6.99861 0.599998H7.00061ZM6.42644 1.75333C6.59684 1.75306 6.78698 1.75333 7.00058 1.75333C8.7094 1.75333 8.91193 1.75946 9.58674 1.79013C10.2107 1.81866 10.5494 1.92293 10.775 2.01053C11.0737 2.12653 11.2866 2.2652 11.5105 2.4892C11.7345 2.7132 11.8732 2.92654 11.9894 3.22521C12.077 3.45054 12.1814 3.78921 12.2098 4.41322C12.2405 5.08789 12.2472 5.29056 12.2472 6.99858C12.2472 8.7066 12.2405 8.90927 12.2098 9.58394C12.1813 10.2079 12.077 10.5466 11.9894 10.772C11.8734 11.0706 11.7345 11.2833 11.5105 11.5072C11.2865 11.7312 11.0738 11.8698 10.775 11.9858C10.5497 12.0738 10.2107 12.1778 9.58674 12.2064C8.91207 12.237 8.7094 12.2437 7.00058 12.2437C5.29163 12.2437 5.08909 12.237 4.41442 12.2064C3.79041 12.1776 3.45174 12.0733 3.22601 11.9857C2.92734 11.8697 2.714 11.731 2.49 11.507C2.266 11.283 2.12733 11.0702 2.01106 10.7714C1.92346 10.5461 1.81906 10.2074 1.79066 9.58341C1.75999 8.90873 1.75386 8.70607 1.75386 6.99698C1.75386 5.2879 1.75999 5.08629 1.79066 4.41162C1.81919 3.78761 1.92346 3.44894 2.01106 3.22334C2.12706 2.92467 2.266 2.71134 2.49 2.48733C2.714 2.26333 2.92734 2.12466 3.22601 2.0084C3.45161 1.92039 3.79041 1.81639 4.41442 1.78773C5.00482 1.76106 5.23363 1.75306 6.42644 1.75173V1.75333ZM10.4169 2.81601C9.99288 2.81601 9.64888 3.15961 9.64888 3.58375C9.64888 4.00775 9.99288 4.35176 10.4169 4.35176C10.8409 4.35176 11.1849 4.00775 11.1849 3.58375C11.1849 3.15974 10.8409 2.81601 10.4169 2.81601ZM7.00062 3.71335C5.18553 3.71335 3.71392 5.18496 3.71392 7.00005C3.71392 8.81513 5.18553 10.2861 7.00062 10.2861C8.8157 10.2861 10.2868 8.81513 10.2868 7.00005C10.2868 5.18496 8.8157 3.71335 7.00062 3.71335ZM7.00059 4.86669C8.17874 4.86669 9.13395 5.82177 9.13395 7.00005C9.13395 8.17819 8.17874 9.1334 7.00059 9.1334C5.82231 9.1334 4.86724 8.17819 4.86724 7.00005C4.86724 5.82177 5.82231 4.86669 7.00059 4.86669Z" fill="white"/>
</svg>
