<svg width="159" height="47" viewBox="0 0 159 47" fill="none" xmlns="http://www.w3.org/2000/svg">
<path d="M36.7367 36.3819V36.1521H36.8507V35.5775H36.9648V34.8879H37.0788V32.9342H37.1928V32.8193H37.535V32.7044H37.763V32.5895H37.9911V32.4745H38.2192V32.3596H38.4473V32.2447H38.5613V32.1298H38.7894V32.0149H38.9034V31.8999H39.1315V31.785H39.2455V31.6701H39.4736V31.5552H39.5876V31.4402H39.8157V31.3253H39.9297V31.2104H40.0438V31.0955H40.1578V30.9805H40.2718V30.8656H40.3859V30.7507H40.4999V30.6358H40.6139V30.5209H40.728V30.4059H40.9561V30.291H41.0701V30.0612H41.1841V29.9462H41.2982V29.8313H41.4122V29.7164H41.5262V29.4866H41.6403V29.3716H41.7543V29.2567H41.8683V29.1418H41.9824V28.9119H42.0964V28.797H42.2105V28.5672H42.3245V28.3373H42.4385V28.1075H42.5526V27.9926H42.6666V27.7627H42.7806V27.5329H42.8947V27.1881H43.0087V26.9583H43.1227V26.7284H43.2368V26.3836H43.3508V26.0389H43.4649V25.5792H43.5789V25.1195H43.6929V24.5449H43.807V23.5106H43.921V22.3613H43.807V21.5569H43.6929V20.7524H43.5789V20.4077H43.4649V20.0629H43.3508V19.7181H43.2368V19.2584H43.1227V18.9137H43.0087V18.6838H42.8947V18.454H42.7806V18.2241H42.6666V17.9943H42.5526V17.8794H42.4385V17.6495H42.3245V17.4197H42.2105V17.1898H42.0964V16.96H41.9824V16.8451H41.8683V16.7301H41.7543V16.6152H41.6403V16.3854H41.5262V16.2704H41.4122V16.1555H41.2982V16.0406H41.1841V15.9257H41.0701V15.6958H40.9561V15.5809H40.842V15.466H40.728V15.3511H40.6139V15.2361H40.4999V15.1212H40.2718V15.0063H40.1578V14.8914H40.0438V14.7764H39.9297V14.6615H39.7017V14.5466H39.5876V14.4317H39.4736V14.3168H39.3595V14.2018H39.2455V14.0869H39.0174V13.972H38.7894V13.8571H38.5613V13.7421H38.3332V13.6272H38.2192V13.5123H37.9911V13.3974H37.763V13.2825H37.535V13.1675H37.3069V13.0526H36.9648V12.9377H36.5086V12.8228H36.1665V12.7078H35.8244V12.5929H35.4823V12.478H34.684V12.3631H33.8858V12.2481H32.8595V12.3631H31.7191V12.478H31.1489V12.5929H30.6928V12.7078H30.2366V12.8228H29.8945V12.9377H29.5524V13.0526H29.3243V13.1675H28.9822V13.2825H28.7541V13.3974H28.5261V13.5123H28.298V13.6272H28.0699V13.7421H27.9559V13.8571H27.7278V13.972H27.4997V14.0869H27.3857V14.2018H27.1576V14.3168H27.0436V14.4317H26.9296V14.5466H26.7015V14.6615H26.5875V14.7764H26.4734V14.8914H26.3594V15.0063H26.2453V15.1212H26.1313V15.2361H25.9032V15.3511H25.7892V15.466H25.6752V15.5809H25.5611V15.8108H25.4471V15.9257H25.333V16.0406H25.219V16.1555H24.9909V16.0406H24.8769V15.9257H24.6488V15.8108H24.5348V15.6958H24.4208V15.5809H24.3067V15.466H24.0786V15.3511H23.9646V15.2361H23.7365V15.1212H23.6225V15.0063H23.5085V14.8914H23.2804V14.7764H23.1664V14.6615H23.0523V14.5466H22.8242V14.4317H22.7102V14.3168H22.5962V14.2018H22.3681V14.0869H22.2541V13.972H22.026V13.8571H21.912V13.7421H21.6839V13.6272H21.5698V13.5123H21.3418V13.3974H21.2277V13.2825H20.9997V13.1675H20.8856V13.0526H20.7716V12.9377H20.5435V12.8228H20.4295V12.7078H20.2014V12.5929H20.0874V12.478H19.8593V12.3631H19.6312V12.2481H19.5172V12.1332H19.2891V12.0183H19.1751V11.9034H18.947V11.7885H18.7189V11.6735H18.6049V11.5586H18.3768V11.4437H18.2628V11.3288H18.0347V11.2138H17.8066V11.0989H17.6926V10.984H17.4645V10.8691H17.2365V10.7542H17.1224V10.6392H16.8943V10.5243H16.6663V10.4094H16.4382V10.2945H16.3242V10.1795H16.0961V10.0646H15.868V9.94969H15.6399V9.83477H15.4119V9.71985H15.2978V9.60493H15.0698V9.49H14.8417V9.37508H14.6136V9.26016H14.3855V9.14524H34.9121V9.26016H35.5963V9.37508H36.2806V9.49H36.7367V9.60493H37.1928V9.71985H37.535V9.83477H37.8771V9.94969H38.2192V10.0646H38.4473V10.1795H38.7894V10.2945H39.0174V10.4094H39.2455V10.5243H39.4736V10.6392H39.7017V10.7542H39.9297V10.8691H40.1578V10.984H40.2718V11.0989H40.4999V11.2138H40.728V11.3288H40.842V11.4437H41.0701V11.5586H41.1841V11.6735H41.2982V11.7885H41.5262V11.9034H41.6403V12.0183H41.7543V12.1332H41.9824V12.2481H42.0964V12.3631H42.2105V12.478H42.3245V12.5929H42.4385V12.7078H42.5526V12.8228H42.7806V12.9377H42.8947V13.0526H43.0087V13.1675H43.1227V13.2825H43.2368V13.3974H43.3508V13.6272H43.4649V13.7421H43.5789V13.8571H43.6929V13.972H43.807V14.0869H43.921V14.2018H44.035V14.4317H44.1491V14.5466H44.2631V14.6615H44.3771V14.8914H44.4912V15.0063H44.6052V15.1212H44.7193V15.3511H44.8333V15.466H44.9473V15.6958H45.0614V15.9257H45.1754V16.0406H45.2894V16.2704H45.4035V16.5003H45.5175V16.7301H45.6316V16.96H45.7456V17.1898H45.8596V17.4197H45.9737V17.7644H46.0877V17.9943H46.2017V18.3391H46.3158V18.6838H46.4298V19.0286H46.5438V19.4883H46.6579V19.948H46.7719V20.5226H46.886V21.327H47V24.43H46.886V25.4643H46.7719V25.9239H46.6579V26.2687H46.5438V26.7284H46.4298V27.1881H46.3158V27.6478H46.2017V27.8776H46.0877V28.1075H45.9737V28.4522H45.8596V28.6821H45.7456V28.9119H45.6316V29.1418H45.5175V29.4866H45.4035V29.7164H45.2894V29.8313H45.1754V30.0612H45.0614V30.1761H44.9473V30.4059H44.8333V30.5209H44.7193V30.7507H44.6052V30.8656H44.4912V31.0955H44.3771V31.2104H44.2631V31.4402H44.1491V31.5552H44.035V31.6701H43.921V31.785H43.807V31.8999H43.6929V32.1298H43.5789V32.2447H43.4649V32.3596H43.3508V32.4745H43.2368V32.5895H43.1227V32.7044H43.0087V32.8193H42.8947V32.9342H42.7806V33.0492H42.6666V33.1641H42.5526V33.279H42.4385V33.3939H42.3245V33.5088H42.0964V33.6238H41.9824V33.7387H41.8683V33.8536H41.7543V33.9685H41.5262V34.0835H41.4122V34.1984H41.2982V34.3133H41.0701V34.4282H40.9561V34.5431H40.842V34.6581H40.6139V34.773H40.3859V34.8879H40.1578V35.0028H39.9297V35.1178H39.8157V35.2327H39.5876V35.3476H39.3595V35.4625H39.1315V35.5775H38.9034V35.6924H38.6753V35.8073H38.3332V35.9222H38.1051V36.0371H37.763V36.1521H37.4209V36.267H37.0788V36.3819H36.7367ZM35.9384 28.6821V28.4522H35.8244V28.2224H35.7104V27.9926H35.5963V27.7627H35.4823V27.5329H35.3683V27.303H35.2542V27.0732H35.1402V26.8433H35.0262V26.6135H34.9121V26.3836H34.7981V26.2687H34.684V26.0389H34.57V25.809H34.456V25.6941H34.3419V24.7747H34.456V23.8553H34.57V23.2807H34.456V23.1658H34.1139V23.0509H33.7718V22.936H33.4296V22.821H33.2016V22.7061H32.9735V22.5912H32.7454V22.4763H32.5174V22.3613H32.2893V22.2464H32.1752V22.1315H32.0612V22.0166H31.8331V21.9017H31.7191V21.7867H31.6051V21.5569H31.491V21.442H31.377V21.2121H31.2629V20.9823H31.1489V20.6375H31.0349V18.9137H31.1489V18.5689H31.2629V18.2241H31.377V18.1092H31.491V17.8794H31.6051V17.7644H31.7191V17.6495H31.8331V17.5346H31.9472V17.4197H32.0612V17.3047H32.1752V17.1898H32.2893V17.0749H32.5174V16.96H32.6314V16.8451H32.8595V16.7301H33.2016V16.6152H33.4296V16.5003H33.7718V16.3854H34.2279V16.2704H34.684V16.1555H35.4823V15.5809H35.5963V14.6615H35.7104V14.4317H35.8244V14.3168H36.9648V14.4317H37.0788V14.5466H37.3069V14.6615H37.4209V14.8914H37.535V15.1212H37.649V15.9257H37.535V16.0406H37.649V16.1555H38.2192V16.2704H38.5613V16.3854H38.9034V16.5003H39.2455V16.6152H39.5876V16.7301H39.8157V16.8451H40.0438V16.96H40.1578V17.0749H40.2718V17.1898H40.3859V17.4197H40.4999V17.7644H40.6139V18.1092H40.4999V18.5689H40.3859V18.7987H40.2718V18.9137H40.1578V19.0286H39.9297V19.1435H39.7017V19.2584H39.1315V19.1435H38.7894V19.0286H38.5613V18.9137H38.2192V18.7987H37.8771V18.6838H37.535V18.5689H37.1928V19.4883H37.0788V20.4077H36.9648V21.0972H37.0788V21.2121H37.4209V21.327H37.649V21.442H37.9911V21.5569H38.2192V21.6718H38.5613V21.7867H38.7894V21.9017H39.0174V22.0166H39.2455V22.1315H39.3595V22.2464H39.5876V22.3613H39.7017V22.4763H39.8157V22.5912H39.9297V22.7061H40.0438V22.821H40.1578V23.0509H40.2718V23.1658H40.3859V23.2807H40.4999V23.5106H40.6139V23.7404H40.728V24.0852H40.842V24.43H40.9561V25.6941H40.842V25.9239H40.728V26.2687H40.6139V26.6135H40.4999V26.7284H40.3859V26.8433H40.2718V26.9583H40.1578V27.1881H40.0438V27.303H39.9297V27.4179H39.8157V27.5329H39.5876V27.6478H39.4736V27.7627H39.2455V27.8776H39.1315V27.9926H38.9034V28.1075H38.6753V28.2224H38.3332V28.3373H37.9911V28.4522H37.649V28.5672H36.7367V28.6821H35.9384ZM36.5086 25.9239V26.0389H37.1928V25.9239H37.649V25.809H37.8771V25.6941H37.9911V25.5792H38.1051V25.0046H37.9911V24.7747H37.8771V24.6598H37.763V24.5449H37.649V24.43H37.535V24.315H37.4209V24.2001H37.1928V24.0852H36.9648V23.9703H36.7367V23.8553H36.6227V24.0852H36.5086V24.8896H36.3946V25.809H36.2806V25.9239H36.5086ZM34.684 20.1778V20.2927H34.9121V20.1778H35.0262V19.2584H35.1402V18.454H34.9121V18.5689H34.456V18.6838H34.2279V18.7987H34.1139V18.9137H33.9998V19.0286H33.8858V19.6032H33.9998V19.833H34.1139V19.948H34.2279V20.0629H34.456V20.1778H34.684ZM28.8682 18.1092V17.9943H28.7541V17.5346H28.6401V17.4197H28.5261V17.1898H28.412V17.0749H28.184V16.96H27.9559V16.8451H27.4997V16.7301H27.7278V16.6152H28.0699V16.5003H28.298V16.3854H28.412V16.2704H28.5261V16.1555H28.6401V15.9257H28.7541V15.5809H28.8682V15.3511H28.9822V15.8108H29.0963V16.0406H29.2103V16.2704H29.3243V16.3854H29.5524V16.5003H29.6664V16.6152H30.1226V16.7301H30.3507V16.8451H29.7805V16.96H29.5524V17.0749H29.4384V17.1898H29.3243V17.3047H29.2103V17.4197H29.0963V17.6495H28.9822V18.1092H28.8682ZM31.2629 15.466V15.2361H31.1489V15.0063H31.0349V14.8914H30.8068V14.7764H30.5787V14.6615H30.9208V14.5466H31.0349V14.4317H31.1489V14.2018H31.2629V13.972H31.377V14.3168H31.491V14.4317H31.6051V14.5466H31.7191V14.6615H32.0612V14.7764H31.8331V14.8914H31.6051V15.0063H31.491V15.1212H31.377V15.466" fill="url(#paint0_linear_109_408)"/>
<path d="M17.1225 36.8412V36.7263H16.7804V36.6114H16.6663V36.4965H16.4383V36.3815H16.3242V36.1517H16.2102V36.0368H16.0962V35.692H15.9821V34.8875H16.0962V34.5428H16.2102V34.3129H16.3242V34.0831H16.5523V33.9682H16.6663V33.8532H16.7804V33.7383H17.2365V33.6234H20.7717V33.5085H21.1138V33.3936H21.2278V33.2786H21.3418V33.1637H21.4559V33.0488H21.5699V32.9339H21.684V32.704H21.798V31.6697H21.684V31.4399H21.5699V31.3249H21.4559V31.0951H21.2278V30.9802H21.1138V30.8653H20.8857V30.7503H12.9031V30.6354H12.447V30.5205H12.333V30.4056H12.1049V30.2906H11.9908V30.1757H11.8768V29.9459H11.7628V29.716H11.6487V28.4519H11.7628V28.222H11.8768V28.1071H11.9908V27.9922H12.1049V27.8773H12.2189V27.7623H12.333V27.6474H12.6751V27.5325H14.6137V27.4176H14.9558V27.3026H15.1839V27.1877H15.2979V27.0728H15.4119V26.9579H15.526V26.843H15.64V26.6131H15.7541V25.4639H15.64V25.234H15.526V25.1191H15.4119V25.0042H15.2979V24.8893H15.1839V24.7743H14.9558V24.6594H14.6137V24.5445H9.93819V24.4296H9.71012V24.3147H9.59608V24.1997H9.36801V24.0848H9.25397V23.855H9.13994V23.74H9.0259V23.2804H8.91186V22.7057H9.0259V22.246H9.13994V22.0162H9.25397V21.9013H9.36801V21.7864H9.48204V21.6714H9.59608V21.5565H9.82415V21.4416H10.2803V21.3267H19.1751V21.2117H19.2892V21.0968H19.5173V20.9819H19.6313V20.867H19.7453V20.7521H19.8594V20.5222H19.9734V20.0625H20.0874V19.7178H19.9734V19.2581H19.8594V19.1431H19.7453V18.9133H19.6313V18.7984H19.5173V18.6834H19.2892V18.5685H19.0611V18.4536H15.0698V18.3387H14.6137V18.2238H14.4997V18.1088H14.3856V17.9939H14.1575V17.7641H14.0435V17.5342H13.9295V17.0745H13.8154V16.4999H13.9295V16.1551H14.0435V15.9253H14.1575V15.6955H14.2716V15.5805H14.4997V15.4656H14.6137V15.3507H14.9558V15.2358H19.1751V15.1208H19.4032V15.2358H19.5173V15.3507H19.6313V15.4656H19.7453V15.5805H19.8594V15.6955H19.9734V15.8104H20.2015V15.9253H20.3155V16.0402H20.4296V16.1551H20.5436V16.2701H20.6576V16.385H20.7717V16.4999H20.8857V16.6148H20.9997V16.7298H21.1138V16.8447H21.3418V16.9596H21.4559V17.0745H21.5699V17.1894H21.684V17.3044H21.798V17.4193H21.912V17.5342H22.0261V17.6491H22.1401V17.7641H22.2541V17.879H22.3682V17.9939H22.4822V18.1088H22.5962V18.2238H22.7103V18.3387H22.8243V18.4536H22.9384V18.5685H23.0524V18.6834H23.2805V18.7984H23.3945V18.9133H23.5085V19.0282H23.6226V19.1431H23.7366V19.2581H23.8506V19.373H23.9647V19.4879H24.0787V19.6028H24.1928V19.7178H24.3068V19.8327H24.4208V19.9476H24.5349V20.0625H24.6489V20.1774H24.7629V20.2924H24.991V20.4073H25.105V20.5222H25.2191V20.6371H25.3331V20.7521H25.4472V20.867H25.5612V20.9819H25.6752V21.0968H25.9033V21.2117H26.0173V21.3267H26.1314V21.4416H26.2454V21.5565H26.3594V21.6714H26.4735V21.7864H26.7016V21.9013H26.8156V22.0162H26.9296V22.1311H27.0437V22.246H27.2717V22.361H27.3858V22.4759H27.4998V22.5908H27.6138V22.7057H27.7279V22.8207H27.8419V22.9356H27.956V23.0505H28.07V23.1654H28.184V23.2804H28.2981V23.3953H28.4121V23.5102H28.5261V23.6251H28.6402V23.74H28.7542V23.855H28.8683V23.9699H28.9823V24.0848H29.0963V24.1997H29.2104V24.3147H29.3244V24.5445H29.4384V24.6594H29.5525V24.7743H29.6665V24.8893H29.7805V25.1191H29.8946V25.234H30.0086V25.349H30.1227V25.4639H30.2367V25.6937H30.3507V25.8087H30.4648V25.9236H30.5788V26.1534H30.6928V26.3833H30.8069V26.6131H30.9209V26.843H31.0349V27.0728H31.149V27.3026H31.263V27.5325H31.3771V27.7623H31.4911V27.9922H31.6051V28.337H31.7192V28.6817H31.8332V29.1414H31.9472V29.4862H32.0613V30.1757H31.9472V30.0608H31.8332V29.9459H31.7192V29.716H31.6051V29.6011H31.4911V29.4862H31.3771V29.3713H31.263V29.2563H31.149V29.1414H31.0349V29.0265H30.9209V28.9116H30.8069V29.3713H30.9209V29.8309H31.0349V31.8996H30.9209V32.5891H30.8069V32.9339H30.6928V33.2786H30.5788V33.6234H30.4648V33.8532H30.3507V34.0831H30.2367V34.3129H30.1227V34.4279H30.0086V34.5428H29.8946V34.7726H29.7805V34.8875H29.6665V35.0025H29.5525V35.1174H29.4384V35.2323H29.3244V35.4622H29.2104V35.5771H29.0963V35.692H28.9823V35.8069H28.7542V35.9219H28.6402V36.0368H28.5261V36.1517H28.2981V36.2666H28.184V36.3815H27.956V36.4965H27.7279V36.6114H27.4998V36.7263H27.2717V36.8412H17.1225ZM4.00829 30.7503V30.6354H3.55215V30.5205H3.32407V30.4056H3.21004V30.2906H3.096V30.1757H2.98196V30.0608H2.86793V29.9459H2.75389V29.6011H2.63985V28.5668H2.75389V28.337H2.86793V28.1071H2.98196V27.9922H3.096V27.8773H3.21004V27.7623H3.43811V27.6474H3.66618V27.5325H4.69251V27.6474H4.92058V27.7623H5.14866V27.8773H5.26269V27.9922H5.37673V28.1071H5.49077V28.222H5.6048V28.4519H5.71884V29.716H5.6048V29.9459H5.49077V30.1757H5.37673V30.2906H5.26269V30.4056H5.03462V30.5205H4.80655V30.6354H4.3504V30.7503" fill="url(#paint1_linear_109_408)"/>
<path fill-rule="evenodd" clip-rule="evenodd" d="M8.1124 33.7144C6.09966 33.7144 6.09852 36.7828 8.1124 36.7828H10.9496C12.9635 36.7828 12.9624 33.7144 10.9496 33.7144H8.1124ZM1.51084 21.4383C-0.503043 21.4383 -0.504184 24.5068 1.51084 24.5068H4.34577C6.3608 24.5068 6.35966 21.4383 4.34577 21.4383H1.51084ZM10.0567 15.3003C10.8983 15.3003 11.5791 15.9887 11.5791 16.8345C11.5791 17.6827 10.8983 18.3699 10.0567 18.3699C9.21628 18.3699 8.53433 17.6827 8.53433 16.8345C8.53433 15.9887 9.21628 15.3003 10.0567 15.3003Z" fill="#1F34E9"/>
<path d="M25.3329 41.2089V41.094H24.0785V40.979H23.3943V40.8641H22.7101V40.7492H22.0259V40.6343H21.4557V40.5194H20.9995V40.4044H20.5434V40.2895H20.0872V40.1746H19.6311V40.0597H19.1749V39.9447H18.8328V39.8298H18.3767V39.7149H18.0346V39.6H17.8065V39.4851H20.9995V39.3701H22.482V39.2552H23.3943V39.1403H23.9645V39.0254H24.6487V38.9104H25.1048V38.7955H25.561V38.6806H25.9031V38.5657H26.2452V38.4507H26.5873V38.3358H26.9294V38.2209H27.1575V38.106H27.3856V37.9911H27.6137V37.8761H27.8417V37.7612H28.0698V37.6463H28.2979V37.5314H28.4119V37.4164H28.64V37.3015H28.754V37.1866H28.8681V37.0717H29.0961V36.9568H29.2102V36.8418H29.4382V36.612H29.5523V36.4971H29.6663V36.3821H29.7803V36.2672H29.8944V36.1523H30.0084V36.0374H30.1225V35.9224H30.2365V35.8075H30.3505V35.5777H30.4646V35.3478H30.5786V35.2329H30.6926V35.0031H30.8067V34.7732H30.9207V34.4285H31.0347V34.0837H31.1488V33.7389H31.2628V32.9345H31.3769V31.6703H31.2628V30.8659H31.1488V30.4062H31.0347V29.9465H30.9207V29.6017H30.8067V29.2569H30.6926V29.0271H30.5786V28.6823H30.4646V28.4525H30.3505V28.2226H30.2365V27.9928H30.1225V27.7629H30.0084V27.5331H29.8944V27.4182H29.7803V27.1883H29.6663V26.9585H29.5523V26.7286H29.4382V26.6137H29.3242V26.3839H29.2102V26.2689H29.0961V26.154H28.9821V25.9242H28.8681V25.8093H28.754V25.5794H28.64V25.4645H28.5259V25.3496H28.4119V25.1197H28.2979V25.0048H28.1838V24.8899H28.0698V24.775H27.9558V24.5451H27.8417V24.4302H27.7277V24.3153H27.6137V24.2003H27.4996V24.0854H27.3856V23.9705H27.2715V23.8556H27.1575V23.6257H27.0435V23.5108H26.9294V23.3959H26.8154V23.281H26.7014V23.166H26.5873V23.0511H26.4733V22.9362H26.3592V22.8213H26.2452V22.7063H26.1312V22.5914H26.0171V22.4765H25.9031V22.3616H25.7891V22.2467H25.675V22.1317H25.561V22.0168H25.447V21.9019H25.3329V21.787H25.2189V21.672H25.1048V21.5571H24.9908V21.4422H24.8768V21.3273H24.7627V21.2123H24.6487V21.0974H24.5347V20.9825H24.4206V20.8676H24.3066V20.7527H24.1926V20.6377H23.9645V20.5228H23.8504V20.4079H23.7364V20.293H23.6224V20.178H23.5083V20.0631H23.3943V19.9482H23.2803V19.8333H23.1662V19.7184H23.0522V19.6034H22.9382V19.4885H22.8241V19.3736H22.7101V19.2587H22.482V19.1437H22.368V19.0288H22.2539V18.9139H22.1399V18.799H22.0259V18.684H21.9118V18.5691H21.7978V18.4542H21.5697V18.3393H21.4557V18.2244H21.3416V18.1094H21.2276V17.9945H21.1136V17.8796H20.9995V17.7647H20.7715V17.6497H20.6574V17.5348H20.5434V17.4199H20.4294V17.305H20.3153V17.1901H20.0872V17.0751H19.9732V16.9602H19.8592V16.8453H19.7451V16.7304H19.5171V16.6154H19.403V16.5005H19.289V16.3856H19.1749V16.2707H18.9469V16.1557H18.8328V16.0408H18.7188V15.9259H18.6048V15.811H18.3767V15.6961H18.2627V15.5811H18.1486V15.4662H17.9205V15.3513H17.8065V15.2364H17.6925V15.1214H17.4644V15.0065H17.3504V14.8916H17.2363V14.7767H17.0083V14.6618H16.8942V14.5468H16.7802V14.4319H16.5521V14.317H16.4381V14.2021H16.324V14.0871H16.096V13.9722H15.9819V13.8573H15.8679V13.7424H15.6398V13.6274H15.5258V13.5125H15.4117V13.3976H15.1837V13.2827H15.0696V13.1678H14.9556V13.0528H14.7275V12.9379H14.6135V12.823H14.4995V12.7081H14.2714V12.5931H14.1573V12.4782H14.0433V12.3633H13.8152V12.2484H13.7012V12.1335H13.4731V12.0185H13.3591V11.9036H13.2451V11.7887H13.017V11.6738H12.9029V11.5588H12.6749V11.4439H12.5608V11.329H12.4468V11.2141H12.2187V11.0992H12.1047V10.9842H11.8766V10.8693H11.7626V10.7544H11.5345V10.6395H11.4205V10.5245H11.1924V10.4096H11.0784V10.2947H10.8503V10.1798H10.7362V10.0648H10.5082V9.94992H10.3941V9.835H10.1661V9.72008H9.93799V9.60516H9.82396V9.49023H9.59588V9.37531H9.48185V9.26039H9.25377V9.14547H9.0257V9.03054H8.91166V8.91562H8.68359V8.8007H8.45552V8.68578H8.22744V8.57085H8.11341V8.45593H7.88534V8.34101H7.65726V8.22608H7.42919V8.11116H7.20112V7.99624H7.08708V7.88132H6.85901V7.76639H6.63093V7.65147H6.40286V7.53655H6.17479V7.42162H5.83268V7.3067H5.60461V7.19178H5.37653V7.07686H5.14846V6.96193H4.92039V6.84701H4.69231V6.73209H4.46424V6.61716H4.12213V6.50224H3.89406V6.38732H3.55195V6.2724H3.32388V6.15747H3.0958V6.04255H2.75369V5.92763H2.41158V5.69778H2.52562V5.81271H3.0958V5.92763H3.55195V6.04255H4.00809V6.15747H4.3502V6.2724H4.80635V6.38732H5.14846V6.50224H5.60461V6.61716H5.94671V6.73209H6.28882V6.84701H6.63093V6.96193H6.85901V7.07686H7.20112V7.19178H7.54323V7.3067H7.88534V7.42162H8.11341V7.53655H8.45552V7.65147H8.79763V7.76639H9.13974V7.88132H9.36781V7.99624H9.70992V8.11116H9.93799V8.22608H10.1661V8.34101H10.3941V8.45593H10.7362V8.57085H10.9643V8.68578H11.1924V8.8007H11.4205V8.91562H11.6485V9.03054H11.9906V9.14547H12.2187V9.26039H12.4468V9.37531H12.6749V9.49023H12.9029V9.60516H13.131V9.72008H13.3591V9.835H13.5872V9.94992H13.8152V10.0648H14.0433V10.1798H14.2714V10.2947H14.4995V10.4096H14.6135V10.5245H14.8416V10.6395H15.0696V10.7544H15.2977V10.8693H15.5258V10.9842H15.7539V11.0992H15.9819V11.2141H16.21V11.329H16.324V11.4439H16.5521V11.5588H16.7802V11.6738H16.8942V11.7887H17.1223V11.9036H17.3504V12.0185H17.4644V12.1335H17.6925V12.2484H17.8065V12.3633H18.0346V12.4782H18.2627V12.5931H18.3767V12.7081H18.6048V12.823H18.8328V12.9379H18.9469V13.0528H19.1749V13.1678H19.403V13.2827H19.5171V13.3976H19.7451V13.5125H19.8592V13.6274H20.0872V13.7424H20.2013V13.8573H20.3153V13.9722H20.5434V14.0871H20.6574V14.2021H20.8855V14.317H20.9995V14.4319H21.2276V14.5468H21.3416V14.6618H21.5697V14.7767H21.6838V14.8916H21.7978V15.0065H22.0259V15.1214H22.1399V15.2364H22.368V15.3513H22.482V15.4662H22.7101V15.5811H22.8241V15.6961H22.9382V15.811H23.1662V15.9259H23.2803V16.0408H23.3943V16.1557H23.5083V16.2707H23.7364V16.3856H23.8504V16.5005H23.9645V16.6154H24.1926V16.7304H24.3066V16.8453H24.4206V16.9602H24.5347V17.0751H24.7627V17.1901H24.8768V17.305H24.9908V17.4199H25.2189V17.5348H25.3329V17.6497H25.447V17.7647H25.561V17.8796H25.675V17.9945H25.9031V18.1094H26.0171V18.2244H26.1312V18.3393H26.2452V18.4542H26.3592V18.5691H26.5873V18.684H26.7014V18.799H26.8154V18.9139H26.9294V19.0288H27.0435V19.1437H27.1575V19.2587H27.3856V19.3736H27.4996V19.4885H27.6137V19.6034H27.7277V19.7184H27.8417V19.8333H27.9558V19.9482H28.0698V20.0631H28.1838V20.178H28.2979V20.293H28.5259V20.4079H28.64V20.5228H28.754V20.6377H28.8681V20.7527H28.9821V20.8676H29.0961V20.9825H29.2102V21.0974H29.3242V21.2123H29.4382V21.3273H29.5523V21.4422H29.6663V21.5571H29.7803V21.672H29.8944V21.787H30.0084V21.9019H30.1225V22.0168H30.2365V22.1317H30.3505V22.2467H30.4646V22.4765H30.5786V22.5914H30.6926V22.7063H30.8067V22.8213H30.9207V22.9362H31.0347V23.0511H31.1488V23.281H31.2628V23.3959H31.3769V23.5108H31.4909V23.6257H31.6049V23.7406H31.719V23.8556H31.833V24.0854H31.947V24.2003H32.0611V24.3153H32.1751V24.4302H32.2891V24.5451H32.4032V24.775H32.5172V24.8899H32.6313V25.1197H32.7453V25.2346H32.8593V25.4645H32.9734V25.5794H33.0874V25.8093H33.2014V25.9242H33.3155V26.154H33.4295V26.2689H33.5436V26.4988H33.6576V26.6137H33.7716V26.7286H33.8857V26.9585H33.9997V27.1883H34.1137V27.4182H34.2278V27.648H34.3418V27.8779H34.4558V28.1077H34.5699V28.3376H34.6839V28.5674H34.798V28.7972H34.912V29.0271H35.026V29.2569H35.1401V29.6017H35.2541V29.9465H35.3681V30.2912H35.4822V30.636H35.5962V30.9808H35.7102V31.3255H35.8243V32.0151H35.9383V32.7046H36.0524V35.2329H35.9383V35.5777H35.8243V36.0374H35.7102V36.3821H35.5962V36.8418H35.4822V37.0717H35.3681V37.1866H35.2541V37.4164H35.1401V37.6463H35.026V37.7612H34.912V37.9911H34.798V38.2209H34.6839V38.3358H34.5699V38.4507H34.4558V38.5657H34.3418V38.6806H34.2278V38.7955H34.1137V38.9104H33.9997V39.0254H33.8857V39.1403H33.7716V39.2552H33.6576V39.3701H33.5436V39.4851H33.3155V39.6H33.0874V39.7149H32.9734V39.8298H32.7453V39.9447H32.5172V40.0597H32.2891V40.1746H32.0611V40.2895H31.947V40.4044H31.6049V40.5194H31.2628V40.6343H30.8067V40.7492H30.4646V40.8641H30.0084V40.979H29.4382V41.094H28.2979V41.2089" fill="url(#paint2_linear_109_408)"/>
<path d="M67.0536 22.6731C67.0536 24.0937 66.7719 25.3736 66.2086 26.5125C65.6575 27.6393 64.8736 28.5517 63.8571 29.2498L65.8963 32.6116H61.5975L60.5688 30.499C60.2258 30.548 59.8217 30.5725 59.3563 30.5725C58.2663 30.5725 57.3049 30.3459 56.4721 29.8928C55.6393 29.4396 54.9963 28.8028 54.5431 27.9822C54.09 27.1616 53.8634 26.2186 53.8634 25.1531C53.8634 23.6222 54.1819 22.2628 54.8187 21.0748C55.4678 19.8746 56.368 18.9438 57.5192 18.2824C58.6827 17.6211 60.0115 17.2904 61.5057 17.2904C62.6202 17.2904 63.5938 17.517 64.4266 17.9701C65.2717 18.411 65.9208 19.0418 66.3739 19.8623C66.8271 20.6706 67.0536 21.6075 67.0536 22.6731ZM57.4274 24.7306C57.4274 25.5021 57.6417 26.1145 58.0703 26.5677C58.499 27.0085 59.1113 27.229 59.9074 27.229C60.63 27.229 61.2607 27.0392 61.7996 26.6595C62.3507 26.2798 62.7671 25.7777 63.0488 25.1531C63.3427 24.5162 63.4897 23.8304 63.4897 23.0956C63.4897 22.3118 63.2754 21.7055 62.8467 21.2769C62.4303 20.836 61.8302 20.6155 61.0464 20.6155C60.3238 20.6155 59.687 20.8054 59.1358 21.185C58.5847 21.5524 58.1622 22.0484 57.8683 22.6731C57.5743 23.2977 57.4274 23.9835 57.4274 24.7306ZM79.9515 20.1379L78.1144 30.4439H74.5137L74.7709 28.9742C74.3668 29.4396 73.8708 29.8193 73.2829 30.1132C72.7073 30.3949 72.0704 30.5357 71.3723 30.5357C70.3558 30.5357 69.5659 30.2479 69.0025 29.6723C68.4391 29.0967 68.1575 28.2945 68.1575 27.2657C68.1575 26.9106 68.1942 26.5309 68.2677 26.1268L69.3148 20.1379H72.9155L71.9418 25.6675C71.9051 25.8267 71.8867 25.9859 71.8867 26.1451C71.8867 26.586 72.0153 26.9351 72.2725 27.1923C72.5297 27.4372 72.8787 27.5597 73.3196 27.5597C73.834 27.5597 74.2688 27.4005 74.624 27.082C74.9791 26.7636 75.2179 26.3227 75.3404 25.7593L76.3324 20.1379H79.9515ZM83.9847 19.1826C83.4213 19.1826 82.9743 19.0418 82.6436 18.7601C82.3252 18.4784 82.166 18.1171 82.166 17.6762C82.166 17.2843 82.2701 16.923 82.4783 16.5923C82.6988 16.2494 82.9927 15.98 83.3601 15.784C83.7398 15.5758 84.1623 15.4717 84.6277 15.4717C85.1911 15.4717 85.632 15.6187 85.9504 15.9126C86.2811 16.1943 86.4464 16.5617 86.4464 17.0149C86.4464 17.4068 86.3362 17.7681 86.1157 18.0987C85.9075 18.4294 85.6136 18.6927 85.2339 18.8887C84.8543 19.0846 84.4379 19.1826 83.9847 19.1826ZM85.6013 20.1379L83.7826 30.4439H80.1636L82.0007 20.1379H85.6013ZM86.1454 25.2817C86.3414 24.2039 86.7272 23.2732 87.3028 22.4893C87.8906 21.6933 88.6132 21.0809 89.4705 20.6523C90.3401 20.2236 91.2831 20.0093 92.2996 20.0093C93.6101 20.0093 94.6511 20.3706 95.4227 21.0932C96.1942 21.8035 96.5984 22.8016 96.6351 24.0876H92.7956C92.6977 23.414 92.3241 23.0772 91.675 23.0772C91.2219 23.0772 90.83 23.267 90.4993 23.6467C90.1686 24.0141 89.942 24.5591 89.8196 25.2817C89.7706 25.5266 89.7461 25.7716 89.7461 26.0165C89.7461 26.5064 89.8502 26.88 90.0584 27.1371C90.2666 27.3821 90.5483 27.5046 90.9035 27.5046C91.5648 27.5046 92.0486 27.1678 92.3547 26.4942H96.1942C95.7166 27.7679 94.9634 28.766 93.9346 29.4886C92.9181 30.2112 91.7485 30.5725 90.4258 30.5725C89.0786 30.5725 88.007 30.2051 87.2109 29.4702C86.4271 28.7354 86.0352 27.725 86.0352 26.4391C86.0352 26.0716 86.0719 25.6859 86.1454 25.2817ZM104.597 25.3184L107.812 30.4439H103.422L101.346 26.237L100.593 30.4439H96.9735L99.3801 16.8495H102.999L101.713 24.1611L105.259 20.1379H109.576L104.597 25.3184Z" fill="white"/>
<path d="M110.001 23.9406C110.222 22.6669 110.687 21.5341 111.397 20.542C112.108 19.5378 113.002 18.7601 114.079 18.209C115.157 17.6456 116.333 17.3639 117.607 17.3639C118.672 17.3639 119.603 17.5599 120.399 17.9518C121.195 18.3437 121.814 18.9009 122.254 19.6235C122.695 20.3461 122.934 21.1973 122.971 22.177H119.095C118.948 21.6994 118.691 21.332 118.323 21.0748C117.956 20.8176 117.503 20.689 116.964 20.689C116.131 20.689 115.414 20.9829 114.814 21.5708C114.214 22.1587 113.828 22.9486 113.657 23.9406C113.608 24.1978 113.583 24.4734 113.583 24.7673C113.583 25.5266 113.779 26.1268 114.171 26.5677C114.576 26.9963 115.127 27.2106 115.825 27.2106C116.364 27.2106 116.86 27.082 117.313 26.8248C117.778 26.5677 118.164 26.2002 118.47 25.7226H122.365C121.777 27.2045 120.852 28.3802 119.591 29.2498C118.329 30.1071 116.89 30.5357 115.274 30.5357C114.159 30.5357 113.192 30.3214 112.371 29.8928C111.563 29.4641 110.944 28.8579 110.516 28.0741C110.087 27.2902 109.873 26.3839 109.873 25.3552C109.873 24.8775 109.915 24.406 110.001 23.9406ZM123.537 25.2817C123.733 24.2162 124.094 23.2854 124.621 22.4893C125.147 21.6933 125.778 21.0809 126.513 20.6523C127.26 20.2236 128.044 20.0093 128.865 20.0093C129.575 20.0093 130.163 20.1501 130.628 20.4318C131.093 20.7135 131.418 21.0932 131.602 21.5708L131.859 20.1379H135.46L133.641 30.4439H130.04L130.297 29.011C129.942 29.4886 129.477 29.8683 128.901 30.1499C128.326 30.4316 127.689 30.5725 126.991 30.5725C125.913 30.5725 125.05 30.2173 124.4 29.507C123.751 28.7844 123.427 27.8046 123.427 26.5677C123.427 26.1635 123.464 25.7348 123.537 25.2817ZM130.959 25.2817C130.996 25.098 131.014 24.9265 131.014 24.7673C131.014 24.2529 130.867 23.8549 130.573 23.5732C130.291 23.2915 129.924 23.1507 129.471 23.1507C128.932 23.1507 128.448 23.3405 128.019 23.7202C127.591 24.0876 127.321 24.6081 127.211 25.2817C127.174 25.4654 127.156 25.643 127.156 25.8144C127.156 26.3288 127.297 26.7269 127.579 27.0085C127.872 27.2902 128.246 27.4311 128.699 27.4311C129.238 27.4311 129.722 27.2412 130.15 26.8616C130.579 26.4819 130.849 25.9553 130.959 25.2817ZM140.194 30.5725C139.336 30.5725 138.571 30.4439 137.897 30.1867C137.224 29.9295 136.697 29.5682 136.317 29.1028C135.938 28.6252 135.748 28.0802 135.748 27.4678C135.748 27.3576 135.76 27.1923 135.785 26.9718H139.257C139.244 27.3147 139.348 27.578 139.569 27.7617C139.789 27.9455 140.096 28.0373 140.487 28.0373C140.794 28.0373 141.045 27.9761 141.241 27.8536C141.449 27.7311 141.553 27.5719 141.553 27.376C141.553 27.1433 141.424 26.9657 141.167 26.8432C140.91 26.7085 140.481 26.5432 139.881 26.3472C139.183 26.1268 138.608 25.9124 138.154 25.7042C137.701 25.496 137.303 25.1898 136.96 24.7857C136.63 24.3815 136.464 23.861 136.464 23.2242C136.464 22.6118 136.642 22.0607 136.997 21.5708C137.364 21.0809 137.879 20.7013 138.54 20.4318C139.201 20.1501 139.967 20.0093 140.836 20.0093C141.767 20.0093 142.569 20.1685 143.243 20.4869C143.929 20.7931 144.437 21.2218 144.768 21.7729C145.111 22.324 145.264 22.9364 145.227 23.61H141.994C142.006 23.2793 141.908 23.0221 141.7 22.8384C141.492 22.6424 141.192 22.5445 140.8 22.5445C140.518 22.5445 140.285 22.6057 140.102 22.7282C139.918 22.8506 139.826 23.0098 139.826 23.2058C139.826 23.4385 139.955 23.6222 140.212 23.7569C140.481 23.8916 140.928 24.0631 141.553 24.2713C142.239 24.4918 142.808 24.7122 143.261 24.9327C143.727 25.1409 144.125 25.4409 144.456 25.8328C144.786 26.2125 144.952 26.7024 144.952 27.3025C144.952 28.319 144.511 29.1212 143.629 29.709C142.747 30.2847 141.602 30.5725 140.194 30.5725ZM154.75 20.046C155.754 20.046 156.538 20.3338 157.101 20.9095C157.665 21.4851 157.946 22.2873 157.946 23.316C157.946 23.6712 157.91 24.0447 157.836 24.4366L156.771 30.4439H153.17L154.144 24.9143C154.18 24.7306 154.199 24.5652 154.199 24.4183C154.199 23.9774 154.07 23.6345 153.813 23.3895C153.568 23.1446 153.219 23.0221 152.766 23.0221C152.264 23.0221 151.835 23.1752 151.48 23.4814C151.125 23.7875 150.886 24.2101 150.763 24.7489L149.753 30.4439H146.134L148.54 16.8495H152.159L151.314 21.6075C151.719 21.1422 152.215 20.7686 152.802 20.4869C153.39 20.193 154.039 20.046 154.75 20.046Z" fill="#289FF8"/>
<defs>
<linearGradient id="paint0_linear_109_408" x1="46.9829" y1="22.7406" x2="9.6309" y2="22.7406" gradientUnits="userSpaceOnUse">
<stop stop-color="#1E27E7"/>
<stop offset="0.996006" stop-color="#2CD1FF"/>
<stop offset="1" stop-color="#2CD1FF"/>
</linearGradient>
<linearGradient id="paint1_linear_109_408" x1="30.5868" y1="26.0006" x2="0.896807" y2="26.0006" gradientUnits="userSpaceOnUse">
<stop stop-color="#1E27E7"/>
<stop offset="0.996006" stop-color="#2CD1FF"/>
<stop offset="1" stop-color="#2CD1FF"/>
</linearGradient>
<linearGradient id="paint2_linear_109_408" x1="22.1638" y1="41.1894" x2="22.1638" y2="5.81018" gradientUnits="userSpaceOnUse">
<stop stop-color="#1E27E7"/>
<stop offset="0.996006" stop-color="#2CD1FF"/>
<stop offset="1" stop-color="#2CD1FF"/>
</linearGradient>
</defs>
</svg>
