<svg width="159" height="47" viewBox="0 0 159 47" fill="none" xmlns="http://www.w3.org/2000/svg">
<path d="M36.7367 36.3818V36.152H36.8508V35.5774H36.9648V34.8878H37.0788V32.9342H37.1929V32.8192H37.535V32.7043H37.763V32.5894H37.9911V32.4745H38.2192V32.3595H38.4473V32.2446H38.5613V32.1297H38.7894V32.0148H38.9034V31.8999H39.1315V31.7849H39.2455V31.67H39.4736V31.5551H39.5876V31.4402H39.8157V31.3252H39.9297V31.2103H40.0438V31.0954H40.1578V30.9805H40.2719V30.8655H40.3859V30.7506H40.4999V30.6357H40.614V30.5208H40.728V30.4059H40.9561V30.2909H41.0701V30.0611H41.1841V29.9462H41.2982V29.8312H41.4122V29.7163H41.5263V29.4865H41.6403V29.3716H41.7543V29.2566H41.8684V29.1417H41.9824V28.9119H42.0964V28.7969H42.2105V28.5671H42.3245V28.3372H42.4385V28.1074H42.5526V27.9925H42.6666V27.7626H42.7807V27.5328H42.8947V27.188H43.0087V26.9582H43.1228V26.7283H43.2368V26.3836H43.3508V26.0388H43.4649V25.5791H43.5789V25.1194H43.6929V24.5448H43.807V23.5105H43.921V22.3613H43.807V21.5568H43.6929V20.7524H43.5789V20.4076H43.4649V20.0628H43.3508V19.718H43.2368V19.2584H43.1228V18.9136H43.0087V18.6837H42.8947V18.4539H42.7807V18.2241H42.6666V17.9942H42.5526V17.8793H42.4385V17.6494H42.3245V17.4196H42.2105V17.1897H42.0964V16.9599H41.9824V16.845H41.8684V16.7301H41.7543V16.6151H41.6403V16.3853H41.5263V16.2704H41.4122V16.1554H41.2982V16.0405H41.1841V15.9256H41.0701V15.6958H40.9561V15.5808H40.842V15.4659H40.728V15.351H40.614V15.2361H40.4999V15.1211H40.2719V15.0062H40.1578V14.8913H40.0438V14.7764H39.9297V14.6614H39.7017V14.5465H39.5876V14.4316H39.4736V14.3167H39.3596V14.2018H39.2455V14.0868H39.0174V13.9719H38.7894V13.857H38.5613V13.7421H38.3332V13.6271H38.2192V13.5122H37.9911V13.3973H37.763V13.2824H37.535V13.1675H37.3069V13.0525H36.9648V12.9376H36.5086V12.8227H36.1665V12.7078H35.8244V12.5928H35.4823V12.4779H34.6841V12.363H33.8858V12.2481H32.8595V12.363H31.7191V12.4779H31.1489V12.5928H30.6928V12.7078H30.2366V12.8227H29.8945V12.9376H29.5524V13.0525H29.3243V13.1675H28.9822V13.2824H28.7542V13.3973H28.5261V13.5122H28.298V13.6271H28.0699V13.7421H27.9559V13.857H27.7278V13.9719H27.4998V14.0868H27.3857V14.2018H27.1576V14.3167H27.0436V14.4316H26.9296V14.5465H26.7015V14.6614H26.5875V14.7764H26.4734V14.8913H26.3594V15.0062H26.2454V15.1211H26.1313V15.2361H25.9032V15.351H25.7892V15.4659H25.6752V15.5808H25.5611V15.8107H25.4471V15.9256H25.3331V16.0405H25.219V16.1554H24.991V16.0405H24.8769V15.9256H24.6488V15.8107H24.5348V15.6958H24.4208V15.5808H24.3067V15.4659H24.0787V15.351H23.9646V15.2361H23.7366V15.1211H23.6225V15.0062H23.5085V14.8913H23.2804V14.7764H23.1664V14.6614H23.0523V14.5465H22.8243V14.4316H22.7102V14.3167H22.5962V14.2018H22.3681V14.0868H22.2541V13.9719H22.026V13.857H21.912V13.7421H21.6839V13.6271H21.5699V13.5122H21.3418V13.3973H21.2278V13.2824H20.9997V13.1675H20.8856V13.0525H20.7716V12.9376H20.5435V12.8227H20.4295V12.7078H20.2014V12.5928H20.0874V12.4779H19.8593V12.363H19.6312V12.2481H19.5172V12.1331H19.2891V12.0182H19.1751V11.9033H18.947V11.7884H18.7189V11.6735H18.6049V11.5585H18.3768V11.4436H18.2628V11.3287H18.0347V11.2138H17.8067V11.0988H17.6926V10.9839H17.4645V10.869H17.2365V10.7541H17.1224V10.6392H16.8944V10.5242H16.6663V10.4093H16.4382V10.2944H16.3242V10.1795H16.0961V10.0645H15.868V9.94962H15.64V9.8347H15.4119V9.71977H15.2979V9.60485H15.0698V9.48993H14.8417V9.375H14.6136V9.26008H14.3856V9.14516H34.9121V9.26008H35.5964V9.375H36.2806V9.48993H36.7367V9.60485H37.1929V9.71977H37.535V9.8347H37.8771V9.94962H38.2192V10.0645H38.4473V10.1795H38.7894V10.2944H39.0174V10.4093H39.2455V10.5242H39.4736V10.6392H39.7017V10.7541H39.9297V10.869H40.1578V10.9839H40.2719V11.0988H40.4999V11.2138H40.728V11.3287H40.842V11.4436H41.0701V11.5585H41.1841V11.6735H41.2982V11.7884H41.5263V11.9033H41.6403V12.0182H41.7543V12.1331H41.9824V12.2481H42.0964V12.363H42.2105V12.4779H42.3245V12.5928H42.4385V12.7078H42.5526V12.8227H42.7807V12.9376H42.8947V13.0525H43.0087V13.1675H43.1228V13.2824H43.2368V13.3973H43.3508V13.6271H43.4649V13.7421H43.5789V13.857H43.6929V13.9719H43.807V14.0868H43.921V14.2018H44.0351V14.4316H44.1491V14.5465H44.2631V14.6614H44.3772V14.8913H44.4912V15.0062H44.6052V15.1211H44.7193V15.351H44.8333V15.4659H44.9473V15.6958H45.0614V15.9256H45.1754V16.0405H45.2895V16.2704H45.4035V16.5002H45.5175V16.7301H45.6316V16.9599H45.7456V17.1897H45.8596V17.4196H45.9737V17.7644H46.0877V17.9942H46.2017V18.339H46.3158V18.6837H46.4298V19.0285H46.5439V19.4882H46.6579V19.9479H46.7719V20.5225H46.886V21.327H47V24.4299H46.886V25.4642H46.7719V25.9239H46.6579V26.2686H46.5439V26.7283H46.4298V27.188H46.3158V27.6477H46.2017V27.8776H46.0877V28.1074H45.9737V28.4522H45.8596V28.682H45.7456V28.9119H45.6316V29.1417H45.5175V29.4865H45.4035V29.7163H45.2895V29.8312H45.1754V30.0611H45.0614V30.176H44.9473V30.4059H44.8333V30.5208H44.7193V30.7506H44.6052V30.8655H44.4912V31.0954H44.3772V31.2103H44.2631V31.4402H44.1491V31.5551H44.0351V31.67H43.921V31.7849H43.807V31.8999H43.6929V32.1297H43.5789V32.2446H43.4649V32.3595H43.3508V32.4745H43.2368V32.5894H43.1228V32.7043H43.0087V32.8192H42.8947V32.9342H42.7807V33.0491H42.6666V33.164H42.5526V33.2789H42.4385V33.3938H42.3245V33.5088H42.0964V33.6237H41.9824V33.7386H41.8684V33.8535H41.7543V33.9685H41.5263V34.0834H41.4122V34.1983H41.2982V34.3132H41.0701V34.4282H40.9561V34.5431H40.842V34.658H40.614V34.7729H40.3859V34.8878H40.1578V35.0028H39.9297V35.1177H39.8157V35.2326H39.5876V35.3475H39.3596V35.4625H39.1315V35.5774H38.9034V35.6923H38.6753V35.8072H38.3332V35.9221H38.1052V36.0371H37.763V36.152H37.4209V36.2669H37.0788V36.3818H36.7367ZM35.9385 28.682V28.4522H35.8244V28.2223H35.7104V27.9925H35.5964V27.7626H35.4823V27.5328H35.3683V27.3029H35.2542V27.0731H35.1402V26.8433H35.0262V26.6134H34.9121V26.3836H34.7981V26.2686H34.6841V26.0388H34.57V25.8089H34.456V25.694H34.342V24.7746H34.456V23.8553H34.57V23.2806H34.456V23.1657H34.1139V23.0508H33.7718V22.9359H33.4297V22.821H33.2016V22.706H32.9735V22.5911H32.7454V22.4762H32.5174V22.3613H32.2893V22.2463H32.1753V22.1314H32.0612V22.0165H31.8331V21.9016H31.7191V21.7867H31.6051V21.5568H31.491V21.4419H31.377V21.212H31.263V20.9822H31.1489V20.6374H31.0349V18.9136H31.1489V18.5688H31.263V18.2241H31.377V18.1091H31.491V17.8793H31.6051V17.7644H31.7191V17.6494H31.8331V17.5345H31.9472V17.4196H32.0612V17.3047H32.1753V17.1897H32.2893V17.0748H32.5174V16.9599H32.6314V16.845H32.8595V16.7301H33.2016V16.6151H33.4297V16.5002H33.7718V16.3853H34.2279V16.2704H34.6841V16.1554H35.4823V15.5808H35.5964V14.6614H35.7104V14.4316H35.8244V14.3167H36.9648V14.4316H37.0788V14.5465H37.3069V14.6614H37.4209V14.8913H37.535V15.1211H37.649V15.9256H37.535V16.0405H37.649V16.1554H38.2192V16.2704H38.5613V16.3853H38.9034V16.5002H39.2455V16.6151H39.5876V16.7301H39.8157V16.845H40.0438V16.9599H40.1578V17.0748H40.2719V17.1897H40.3859V17.4196H40.4999V17.7644H40.614V18.1091H40.4999V18.5688H40.3859V18.7987H40.2719V18.9136H40.1578V19.0285H39.9297V19.1434H39.7017V19.2584H39.1315V19.1434H38.7894V19.0285H38.5613V18.9136H38.2192V18.7987H37.8771V18.6837H37.535V18.5688H37.1929V19.4882H37.0788V20.4076H36.9648V21.0971H37.0788V21.212H37.4209V21.327H37.649V21.4419H37.9911V21.5568H38.2192V21.6717H38.5613V21.7867H38.7894V21.9016H39.0174V22.0165H39.2455V22.1314H39.3596V22.2463H39.5876V22.3613H39.7017V22.4762H39.8157V22.5911H39.9297V22.706H40.0438V22.821H40.1578V23.0508H40.2719V23.1657H40.3859V23.2806H40.4999V23.5105H40.614V23.7403H40.728V24.0851H40.842V24.4299H40.9561V25.694H40.842V25.9239H40.728V26.2686H40.614V26.6134H40.4999V26.7283H40.3859V26.8433H40.2719V26.9582H40.1578V27.188H40.0438V27.3029H39.9297V27.4179H39.8157V27.5328H39.5876V27.6477H39.4736V27.7626H39.2455V27.8776H39.1315V27.9925H38.9034V28.1074H38.6753V28.2223H38.3332V28.3372H37.9911V28.4522H37.649V28.5671H36.7367V28.682H35.9385ZM36.5086 25.9239V26.0388H37.1929V25.9239H37.649V25.8089H37.8771V25.694H37.9911V25.5791H38.1052V25.0045H37.9911V24.7746H37.8771V24.6597H37.763V24.5448H37.649V24.4299H37.535V24.315H37.4209V24.2H37.1929V24.0851H36.9648V23.9702H36.7367V23.8553H36.6227V24.0851H36.5086V24.8896H36.3946V25.8089H36.2806V25.9239H36.5086ZM34.6841 20.1777V20.2927H34.9121V20.1777H35.0262V19.2584H35.1402V18.4539H34.9121V18.5688H34.456V18.6837H34.2279V18.7987H34.1139V18.9136H33.9998V19.0285H33.8858V19.6031H33.9998V19.833H34.1139V19.9479H34.2279V20.0628H34.456V20.1777H34.6841ZM28.8682 18.1091V17.9942H28.7542V17.5345H28.6401V17.4196H28.5261V17.1897H28.4121V17.0748H28.184V16.9599H27.9559V16.845H27.4998V16.7301H27.7278V16.6151H28.0699V16.5002H28.298V16.3853H28.4121V16.2704H28.5261V16.1554H28.6401V15.9256H28.7542V15.5808H28.8682V15.351H28.9822V15.8107H29.0963V16.0405H29.2103V16.2704H29.3243V16.3853H29.5524V16.5002H29.6665V16.6151H30.1226V16.7301H30.3507V16.845H29.7805V16.9599H29.5524V17.0748H29.4384V17.1897H29.3243V17.3047H29.2103V17.4196H29.0963V17.6494H28.9822V18.1091H28.8682ZM31.263 15.4659V15.2361H31.1489V15.0062H31.0349V14.8913H30.8068V14.7764H30.5787V14.6614H30.9209V14.5465H31.0349V14.4316H31.1489V14.2018H31.263V13.9719H31.377V14.3167H31.491V14.4316H31.6051V14.5465H31.7191V14.6614H32.0612V14.7764H31.8331V14.8913H31.6051V15.0062H31.491V15.1211H31.377V15.4659" fill="url(#paint0_linear_109_445)"/>
<path d="M17.1225 36.8413V36.7264H16.7804V36.6115H16.6663V36.4965H16.4382V36.3816H16.3242V36.1518H16.2102V36.0368H16.0961V35.6921H15.9821V34.8876H16.0961V34.5429H16.2102V34.313H16.3242V34.0832H16.5523V33.9682H16.6663V33.8533H16.7804V33.7384H17.2365V33.6235H20.7716V33.5086H21.1137V33.3936H21.2278V33.2787H21.3418V33.1638H21.4559V33.0489H21.5699V32.9339H21.6839V32.7041H21.798V31.6698H21.6839V31.4399H21.5699V31.325H21.4559V31.0952H21.2278V30.9803H21.1137V30.8653H20.8857V30.7504H12.9031V30.6355H12.447V30.5206H12.3329V30.4056H12.1049V30.2907H11.9908V30.1758H11.8768V29.9459H11.7628V29.7161H11.6487V28.452H11.7628V28.2221H11.8768V28.1072H11.9908V27.9923H12.1049V27.8773H12.2189V27.7624H12.3329V27.6475H12.675V27.5326H14.6137V27.4176H14.9558V27.3027H15.1838V27.1878H15.2979V27.0729H15.4119V26.958H15.526V26.843H15.64V26.6132H15.754V25.464H15.64V25.2341H15.526V25.1192H15.4119V25.0043H15.2979V24.8893H15.1838V24.7744H14.9558V24.6595H14.6137V24.5446H9.93817V24.4297H9.71009V24.3147H9.59606V24.1998H9.36799V24.0849H9.25395V23.855H9.13991V23.7401H9.02588V23.2804H8.91184V22.7058H9.02588V22.2461H9.13991V22.0163H9.25395V21.9014H9.36799V21.7864H9.48202V21.6715H9.59606V21.5566H9.82413V21.4417H10.2803V21.3267H19.1751V21.2118H19.2892V21.0969H19.5172V20.982H19.6313V20.8671H19.7453V20.7521H19.8593V20.5223H19.9734V20.0626H20.0874V19.7178H19.9734V19.2581H19.8593V19.1432H19.7453V18.9134H19.6313V18.7984H19.5172V18.6835H19.2892V18.5686H19.0611V18.4537H15.0698V18.3388H14.6137V18.2238H14.4996V18.1089H14.3856V17.994H14.1575V17.7641H14.0435V17.5343H13.9294V17.0746H13.8154V16.5H13.9294V16.1552H14.0435V15.9254H14.1575V15.6955H14.2716V15.5806H14.4996V15.4657H14.6137V15.3508H14.9558V15.2358H19.1751V15.1209H19.4032V15.2358H19.5172V15.3508H19.6313V15.4657H19.7453V15.5806H19.8593V15.6955H19.9734V15.8105H20.2015V15.9254H20.3155V16.0403H20.4295V16.1552H20.5436V16.2701H20.6576V16.3851H20.7716V16.5H20.8857V16.6149H20.9997V16.7298H21.1137V16.8448H21.3418V16.9597H21.4559V17.0746H21.5699V17.1895H21.6839V17.3044H21.798V17.4194H21.912V17.5343H22.026V17.6492H22.1401V17.7641H22.2541V17.8791H22.3681V17.994H22.4822V18.1089H22.5962V18.2238H22.7103V18.3388H22.8243V18.4537H22.9383V18.5686H23.0524V18.6835H23.2804V18.7984H23.3945V18.9134H23.5085V19.0283H23.6225V19.1432H23.7366V19.2581H23.8506V19.3731H23.9647V19.488H24.0787V19.6029H24.1927V19.7178H24.3068V19.8327H24.4208V19.9477H24.5348V20.0626H24.6489V20.1775H24.7629V20.2924H24.991V20.4074H25.105V20.5223H25.2191V20.6372H25.3331V20.7521H25.4471V20.8671H25.5612V20.982H25.6752V21.0969H25.9033V21.2118H26.0173V21.3267H26.1314V21.4417H26.2454V21.5566H26.3594V21.6715H26.4735V21.7864H26.7015V21.9014H26.8156V22.0163H26.9296V22.1312H27.0436V22.2461H27.2717V22.361H27.3858V22.476H27.4998V22.5909H27.6138V22.7058H27.7279V22.8207H27.8419V22.9357H27.9559V23.0506H28.07V23.1655H28.184V23.2804H28.298V23.3954H28.4121V23.5103H28.5261V23.6252H28.6402V23.7401H28.7542V23.855H28.8682V23.97H28.9823V24.0849H29.0963V24.1998H29.2103V24.3147H29.3244V24.5446H29.4384V24.6595H29.5524V24.7744H29.6665V24.8893H29.7805V25.1192H29.8946V25.2341H30.0086V25.349H30.1226V25.464H30.2367V25.6938H30.3507V25.8087H30.4647V25.9237H30.5788V26.1535H30.6928V26.3833H30.8068V26.6132H30.9209V26.843H31.0349V27.0729H31.149V27.3027H31.263V27.5326H31.377V27.7624H31.4911V27.9923H31.6051V28.337H31.7191V28.6818H31.8332V29.1415H31.9472V29.4863H32.0613V30.1758H31.9472V30.0609H31.8332V29.9459H31.7191V29.7161H31.6051V29.6012H31.4911V29.4863H31.377V29.3713H31.263V29.2564H31.149V29.1415H31.0349V29.0266H30.9209V28.9116H30.8068V29.3713H30.9209V29.831H31.0349V31.8996H30.9209V32.5892H30.8068V32.9339H30.6928V33.2787H30.5788V33.6235H30.4647V33.8533H30.3507V34.0832H30.2367V34.313H30.1226V34.4279H30.0086V34.5429H29.8946V34.7727H29.7805V34.8876H29.6665V35.0025H29.5524V35.1175H29.4384V35.2324H29.3244V35.4622H29.2103V35.5772H29.0963V35.6921H28.9823V35.807H28.7542V35.9219H28.6402V36.0368H28.5261V36.1518H28.298V36.2667H28.184V36.3816H27.9559V36.4965H27.7279V36.6115H27.4998V36.7264H27.2717V36.8413H17.1225ZM4.00827 30.7504V30.6355H3.55212V30.5206H3.32405V30.4056H3.21001V30.2907H3.09598V30.1758H2.98194V30.0609H2.8679V29.9459H2.75387V29.6012H2.63983V28.5669H2.75387V28.337H2.8679V28.1072H2.98194V27.9923H3.09598V27.8773H3.21001V27.7624H3.43809V27.6475H3.66616V27.5326H4.69249V27.6475H4.92056V27.7624H5.14863V27.8773H5.26267V27.9923H5.37671V28.1072H5.49074V28.2221H5.60478V28.452H5.71882V29.7161H5.60478V29.9459H5.49074V30.1758H5.37671V30.2907H5.26267V30.4056H5.0346V30.5206H4.80653V30.6355H4.35038V30.7504" fill="url(#paint1_linear_109_445)"/>
<path fill-rule="evenodd" clip-rule="evenodd" d="M8.1124 33.7143C6.09966 33.7143 6.09852 36.7827 8.1124 36.7827H10.9496C12.9635 36.7827 12.9624 33.7143 10.9496 33.7143H8.1124ZM1.51084 21.4382C-0.503043 21.4382 -0.504184 24.5067 1.51084 24.5067H4.34577C6.3608 24.5067 6.35966 21.4382 4.34577 21.4382H1.51084ZM10.0567 15.3002C10.8983 15.3002 11.5791 15.9886 11.5791 16.8344C11.5791 17.6826 10.8983 18.3698 10.0567 18.3698C9.21628 18.3698 8.53433 17.6826 8.53433 16.8344C8.53433 15.9886 9.21628 15.3002 10.0567 15.3002Z" fill="#1F34E9"/>
<path d="M25.3329 41.209V41.0941H24.0785V40.9791H23.3943V40.8642H22.7101V40.7493H22.0258V40.6344H21.4557V40.5194H20.9995V40.4045H20.5434V40.2896H20.0872V40.1747H19.6311V40.0598H19.1749V39.9448H18.8328V39.8299H18.3767V39.715H18.0346V39.6001H17.8065V39.4851H20.9995V39.3702H22.482V39.2553H23.3943V39.1404H23.9645V39.0255H24.6487V38.9105H25.1048V38.7956H25.561V38.6807H25.9031V38.5658H26.2452V38.4508H26.5873V38.3359H26.9294V38.221H27.1575V38.1061H27.3856V37.9911H27.6136V37.8762H27.8417V37.7613H28.0698V37.6464H28.2978V37.5315H28.4119V37.4165H28.64V37.3016H28.754V37.1867H28.868V37.0718H29.0961V36.9568H29.2101V36.8419H29.4382V36.6121H29.5522V36.4972H29.6663V36.3822H29.7803V36.2673H29.8944V36.1524H30.0084V36.0375H30.1224V35.9225H30.2365V35.8076H30.3505V35.5778H30.4645V35.3479H30.5786V35.233H30.6926V35.0032H30.8067V34.7733H30.9207V34.4285H31.0347V34.0838H31.1488V33.739H31.2628V32.9346H31.3768V31.6704H31.2628V30.8659H31.1488V30.4063H31.0347V29.9466H30.9207V29.6018H30.8067V29.257H30.6926V29.0272H30.5786V28.6824H30.4645V28.4526H30.3505V28.2227H30.2365V27.9929H30.1224V27.763H30.0084V27.5332H29.8944V27.4183H29.7803V27.1884H29.6663V26.9586H29.5522V26.7287H29.4382V26.6138H29.3242V26.384H29.2101V26.269H29.0961V26.1541H28.9821V25.9243H28.868V25.8093H28.754V25.5795H28.64V25.4646H28.5259V25.3497H28.4119V25.1198H28.2978V25.0049H28.1838V24.89H28.0698V24.775H27.9557V24.5452H27.8417V24.4303H27.7277V24.3153H27.6136V24.2004H27.4996V24.0855H27.3856V23.9706H27.2715V23.8557H27.1575V23.6258H27.0434V23.5109H26.9294V23.396H26.8154V23.281H26.7013V23.1661H26.5873V23.0512H26.4733V22.9363H26.3592V22.8214H26.2452V22.7064H26.1312V22.5915H26.0171V22.4766H25.9031V22.3617H25.789V22.2467H25.675V22.1318H25.561V22.0169H25.4469V21.902H25.3329V21.7871H25.2189V21.6721H25.1048V21.5572H24.9908V21.4423H24.8768V21.3274H24.7627V21.2124H24.6487V21.0975H24.5346V20.9826H24.4206V20.8677H24.3066V20.7527H24.1925V20.6378H23.9645V20.5229H23.8504V20.408H23.7364V20.2931H23.6224V20.1781H23.5083V20.0632H23.3943V19.9483H23.2802V19.8334H23.1662V19.7184H23.0522V19.6035H22.9381V19.4886H22.8241V19.3737H22.7101V19.2588H22.482V19.1438H22.3679V19.0289H22.2539V18.914H22.1399V18.7991H22.0258V18.6841H21.9118V18.5692H21.7978V18.4543H21.5697V18.3394H21.4557V18.2244H21.3416V18.1095H21.2276V17.9946H21.1135V17.8797H20.9995V17.7648H20.7714V17.6498H20.6574V17.5349H20.5434V17.42H20.4293V17.3051H20.3153V17.1901H20.0872V17.0752H19.9732V16.9603H19.8591V16.8454H19.7451V16.7305H19.517V16.6155H19.403V16.5006H19.289V16.3857H19.1749V16.2708H18.9469V16.1558H18.8328V16.0409H18.7188V15.926H18.6047V15.8111H18.3767V15.6961H18.2626V15.5812H18.1486V15.4663H17.9205V15.3514H17.8065V15.2365H17.6925V15.1215H17.4644V15.0066H17.3503V14.8917H17.2363V14.7768H17.0082V14.6618H16.8942V14.5469H16.7802V14.432H16.5521V14.3171H16.4381V14.2022H16.324V14.0872H16.0959V13.9723H15.9819V13.8574H15.8679V13.7425H15.6398V13.6275H15.5258V13.5126H15.4117V13.3977H15.1836V13.2828H15.0696V13.1679H14.9556V13.0529H14.7275V12.938H14.6135V12.8231H14.4994V12.7082H14.2714V12.5932H14.1573V12.4783H14.0433V12.3634H13.8152V12.2485H13.7012V12.1335H13.4731V12.0186H13.3591V11.9037H13.245V11.7888H13.017V11.6739H12.9029V11.5589H12.6748V11.444H12.5608V11.3291H12.4468V11.2142H12.2187V11.0992H12.1047V10.9843H11.8766V10.8694H11.7626V10.7545H11.5345V10.6396H11.4204V10.5246H11.1924V10.4097H11.0783V10.2948H10.8503V10.1799H10.7362V10.0649H10.5082V9.95002H10.3941V9.83509H10.166V9.72017H9.93797V9.60525H9.82393V9.49032H9.59586V9.3754H9.48182V9.26048H9.25375V9.14556H9.02568V9.03064H8.91164V8.91571H8.68357V8.80079H8.45549V8.68587H8.22742V8.57094H8.11339V8.45602H7.88531V8.3411H7.65724V8.22617H7.42917V8.11125H7.20109V7.99633H7.08706V7.88141H6.85898V7.76648H6.63091V7.65156H6.40284V7.53664H6.17476V7.42171H5.83266V7.30679H5.60458V7.19187H5.37651V7.07695H5.14844V6.96202H4.92036V6.8471H4.69229V6.73218H4.46422V6.61726H4.12211V6.50233H3.89403V6.38741H3.55193V6.27249H3.32385V6.15757H3.09578V6.04264H2.75367V5.92772H2.41156V5.69788H2.5256V5.8128H3.09578V5.92772H3.55193V6.04264H4.00807V6.15757H4.35018V6.27249H4.80633V6.38741H5.14844V6.50233H5.60458V6.61726H5.94669V6.73218H6.2888V6.8471H6.63091V6.96202H6.85898V7.07695H7.20109V7.19187H7.5432V7.30679H7.88531V7.42171H8.11339V7.53664H8.45549V7.65156H8.7976V7.76648H9.13971V7.88141H9.36779V7.99633H9.7099V8.11125H9.93797V8.22617H10.166V8.3411H10.3941V8.45602H10.7362V8.57094H10.9643V8.68587H11.1924V8.80079H11.4204V8.91571H11.6485V9.03064H11.9906V9.14556H12.2187V9.26048H12.4468V9.3754H12.6748V9.49032H12.9029V9.60525H13.131V9.72017H13.3591V9.83509H13.5871V9.95002H13.8152V10.0649H14.0433V10.1799H14.2714V10.2948H14.4994V10.4097H14.6135V10.5246H14.8415V10.6396H15.0696V10.7545H15.2977V10.8694H15.5258V10.9843H15.7538V11.0992H15.9819V11.2142H16.21V11.3291H16.324V11.444H16.5521V11.5589H16.7802V11.6739H16.8942V11.7888H17.1223V11.9037H17.3503V12.0186H17.4644V12.1335H17.6925V12.2485H17.8065V12.3634H18.0346V12.4783H18.2626V12.5932H18.3767V12.7082H18.6047V12.8231H18.8328V12.938H18.9469V13.0529H19.1749V13.1679H19.403V13.2828H19.517V13.3977H19.7451V13.5126H19.8591V13.6275H20.0872V13.7425H20.2013V13.8574H20.3153V13.9723H20.5434V14.0872H20.6574V14.2022H20.8855V14.3171H20.9995V14.432H21.2276V14.5469H21.3416V14.6618H21.5697V14.7768H21.6837V14.8917H21.7978V15.0066H22.0258V15.1215H22.1399V15.2365H22.3679V15.3514H22.482V15.4663H22.7101V15.5812H22.8241V15.6961H22.9381V15.8111H23.1662V15.926H23.2802V16.0409H23.3943V16.1558H23.5083V16.2708H23.7364V16.3857H23.8504V16.5006H23.9645V16.6155H24.1925V16.7305H24.3066V16.8454H24.4206V16.9603H24.5346V17.0752H24.7627V17.1901H24.8768V17.3051H24.9908V17.42H25.2189V17.5349H25.3329V17.6498H25.4469V17.7648H25.561V17.8797H25.675V17.9946H25.9031V18.1095H26.0171V18.2244H26.1312V18.3394H26.2452V18.4543H26.3592V18.5692H26.5873V18.6841H26.7013V18.7991H26.8154V18.914H26.9294V19.0289H27.0434V19.1438H27.1575V19.2588H27.3856V19.3737H27.4996V19.4886H27.6136V19.6035H27.7277V19.7184H27.8417V19.8334H27.9557V19.9483H28.0698V20.0632H28.1838V20.1781H28.2978V20.2931H28.5259V20.408H28.64V20.5229H28.754V20.6378H28.868V20.7527H28.9821V20.8677H29.0961V20.9826H29.2101V21.0975H29.3242V21.2124H29.4382V21.3274H29.5522V21.4423H29.6663V21.5572H29.7803V21.6721H29.8944V21.7871H30.0084V21.902H30.1224V22.0169H30.2365V22.1318H30.3505V22.2467H30.4645V22.4766H30.5786V22.5915H30.6926V22.7064H30.8067V22.8214H30.9207V22.9363H31.0347V23.0512H31.1488V23.281H31.2628V23.396H31.3768V23.5109H31.4909V23.6258H31.6049V23.7407H31.7189V23.8557H31.833V24.0855H31.947V24.2004H32.0611V24.3153H32.1751V24.4303H32.2891V24.5452H32.4032V24.775H32.5172V24.89H32.6312V25.1198H32.7453V25.2347H32.8593V25.4646H32.9733V25.5795H33.0874V25.8093H33.2014V25.9243H33.3155V26.1541H33.4295V26.269H33.5435V26.4989H33.6576V26.6138H33.7716V26.7287H33.8856V26.9586H33.9997V27.1884H34.1137V27.4183H34.2277V27.6481H34.3418V27.878H34.4558V28.1078H34.5699V28.3376H34.6839V28.5675H34.7979V28.7973H34.912V29.0272H35.026V29.257H35.14V29.6018H35.2541V29.9466H35.3681V30.2913H35.4821V30.6361H35.5962V30.9809H35.7102V31.3256H35.8243V32.0152H35.9383V32.7047H36.0523V35.233H35.9383V35.5778H35.8243V36.0375H35.7102V36.3822H35.5962V36.8419H35.4821V37.0718H35.3681V37.1867H35.2541V37.4165H35.14V37.6464H35.026V37.7613H34.912V37.9911H34.7979V38.221H34.6839V38.3359H34.5699V38.4508H34.4558V38.5658H34.3418V38.6807H34.2277V38.7956H34.1137V38.9105H33.9997V39.0255H33.8856V39.1404H33.7716V39.2553H33.6576V39.3702H33.5435V39.4851H33.3155V39.6001H33.0874V39.715H32.9733V39.8299H32.7453V39.9448H32.5172V40.0598H32.2891V40.1747H32.0611V40.2896H31.947V40.4045H31.6049V40.5194H31.2628V40.6344H30.8067V40.7493H30.4645V40.8642H30.0084V40.9791H29.4382V41.0941H28.2978V41.209" fill="url(#paint2_linear_109_445)"/>
<path d="M67.0536 21.2292C67.0536 22.6498 66.7719 23.9297 66.2086 25.0687C65.6574 26.1954 64.8736 27.1078 63.8571 27.8059L65.8963 31.1677H61.5975L60.5687 29.0551C60.2258 29.1041 59.8217 29.1286 59.3563 29.1286C58.2663 29.1286 57.3049 28.902 56.4721 28.4489C55.6393 27.9957 54.9963 27.3589 54.5431 26.5383C54.09 25.7178 53.8634 24.7747 53.8634 23.7092C53.8634 22.1783 54.1819 20.8189 54.8187 19.6309C55.4678 18.4307 56.368 17.4999 57.5192 16.8386C58.6827 16.1772 60.0115 15.8465 61.5057 15.8465C62.6201 15.8465 63.5938 16.0731 64.4266 16.5263C65.2717 16.9672 65.9208 17.5979 66.3739 18.4184C66.8271 19.2268 67.0536 20.1637 67.0536 21.2292ZM57.4274 23.2867C57.4274 24.0583 57.6417 24.6706 58.0703 25.1238C58.499 25.5647 59.1113 25.7851 59.9074 25.7851C60.63 25.7851 61.2607 25.5953 61.7996 25.2156C62.3507 24.836 62.7671 24.3338 63.0488 23.7092C63.3427 23.0724 63.4897 22.3865 63.4897 21.6517C63.4897 20.8679 63.2754 20.2616 62.8467 19.833C62.4303 19.3921 61.8302 19.1716 61.0464 19.1716C60.3238 19.1716 59.687 19.3615 59.1358 19.7411C58.5847 20.1086 58.1622 20.6046 57.8682 21.2292C57.5743 21.8538 57.4274 22.5396 57.4274 23.2867ZM79.9515 18.694L78.1144 29H74.5137L74.7709 27.5303C74.3668 27.9957 73.8707 28.3754 73.2829 28.6693C72.7073 28.951 72.0704 29.0919 71.3723 29.0919C70.3558 29.0919 69.5659 28.804 69.0025 28.2284C68.4391 27.6528 68.1574 26.8506 68.1574 25.8219C68.1574 25.4667 68.1942 25.087 68.2677 24.6829L69.3148 18.694H72.9155L71.9418 24.2236C71.9051 24.3828 71.8867 24.542 71.8867 24.7012C71.8867 25.1421 72.0153 25.4912 72.2725 25.7484C72.5297 25.9933 72.8787 26.1158 73.3196 26.1158C73.834 26.1158 74.2688 25.9566 74.624 25.6382C74.9791 25.3197 75.2179 24.8788 75.3404 24.3155L76.3324 18.694H79.9515ZM83.9847 17.7387C83.4213 17.7387 82.9743 17.5979 82.6436 17.3162C82.3252 17.0345 82.166 16.6732 82.166 16.2323C82.166 15.8404 82.2701 15.4791 82.4783 15.1485C82.6988 14.8055 82.9927 14.5361 83.3601 14.3401C83.7398 14.1319 84.1623 14.0278 84.6277 14.0278C85.1911 14.0278 85.632 14.1748 85.9504 14.4687C86.2811 14.7504 86.4464 15.1178 86.4464 15.571C86.4464 15.9629 86.3362 16.3242 86.1157 16.6549C85.9075 16.9855 85.6136 17.2488 85.2339 17.4448C84.8543 17.6408 84.4379 17.7387 83.9847 17.7387ZM85.6013 18.694L83.7826 29H80.1636L82.0007 18.694H85.6013ZM86.1454 23.8378C86.3414 22.7601 86.7272 21.8293 87.3028 21.0455C87.8906 20.2494 88.6132 19.637 89.4705 19.2084C90.3401 18.7797 91.2831 18.5654 92.2996 18.5654C93.6101 18.5654 94.6511 18.9267 95.4227 19.6493C96.1942 20.3596 96.5984 21.3578 96.6351 22.6437H92.7956C92.6977 21.9701 92.3241 21.6333 91.675 21.6333C91.2219 21.6333 90.83 21.8232 90.4993 22.2028C90.1686 22.5702 89.942 23.1152 89.8196 23.8378C89.7706 24.0828 89.7461 24.3277 89.7461 24.5726C89.7461 25.0625 89.8502 25.4361 90.0584 25.6933C90.2666 25.9382 90.5483 26.0607 90.9034 26.0607C91.5648 26.0607 92.0486 25.7239 92.3547 25.0503H96.1942C95.7166 26.324 94.9634 27.3221 93.9346 28.0447C92.9181 28.7673 91.7485 29.1286 90.4258 29.1286C89.0786 29.1286 88.007 28.7612 87.2109 28.0264C86.4271 27.2915 86.0352 26.2811 86.0352 24.9952C86.0352 24.6278 86.0719 24.242 86.1454 23.8378ZM104.597 23.8746L107.812 29H103.422L101.346 24.7931L100.593 29H96.9735L99.3801 15.4056H102.999L101.713 22.7172L105.259 18.694H109.576L104.597 23.8746Z" fill="#2F2E33"/>
<path d="M110.001 22.4968C110.222 21.223 110.687 20.0902 111.397 19.0982C112.108 18.0939 113.002 17.3162 114.079 16.7651C115.157 16.2017 116.333 15.92 117.607 15.92C118.672 15.92 119.603 16.116 120.399 16.5079C121.195 16.8998 121.814 17.457 122.254 18.1796C122.695 18.9022 122.934 19.7534 122.971 20.7332H119.095C118.948 20.2555 118.691 19.8881 118.323 19.6309C117.956 19.3737 117.503 19.2451 116.964 19.2451C116.131 19.2451 115.414 19.5391 114.814 20.1269C114.214 20.7148 113.828 21.5047 113.657 22.4968C113.608 22.7539 113.583 23.0295 113.583 23.3234C113.583 24.0828 113.779 24.6829 114.171 25.1238C114.576 25.5524 115.127 25.7667 115.825 25.7667C116.364 25.7667 116.86 25.6382 117.313 25.381C117.778 25.1238 118.164 24.7564 118.47 24.2787H122.365C121.777 25.7606 120.852 26.9364 119.591 27.8059C118.329 28.6632 116.89 29.0919 115.274 29.0919C114.159 29.0919 113.192 28.8775 112.371 28.4489C111.563 28.0202 110.944 27.414 110.516 26.6302C110.087 25.8464 109.873 24.9401 109.873 23.9113C109.873 23.4337 109.915 22.9621 110.001 22.4968ZM123.537 23.8378C123.733 22.7723 124.094 21.8415 124.621 21.0455C125.147 20.2494 125.778 19.637 126.513 19.2084C127.26 18.7797 128.044 18.5654 128.864 18.5654C129.575 18.5654 130.163 18.7063 130.628 18.9879C131.093 19.2696 131.418 19.6493 131.602 20.1269L131.859 18.694H135.46L133.641 29H130.04L130.297 27.5671C129.942 28.0447 129.477 28.4244 128.901 28.7061C128.326 28.9878 127.689 29.1286 126.991 29.1286C125.913 29.1286 125.05 28.7734 124.4 28.0631C123.751 27.3405 123.427 26.3607 123.427 25.1238C123.427 24.7196 123.463 24.291 123.537 23.8378ZM130.959 23.8378C130.996 23.6541 131.014 23.4827 131.014 23.3234C131.014 22.8091 130.867 22.411 130.573 22.1293C130.291 21.8477 129.924 21.7068 129.471 21.7068C128.932 21.7068 128.448 21.8966 128.019 22.2763C127.591 22.6437 127.321 23.1642 127.211 23.8378C127.174 24.0215 127.156 24.1991 127.156 24.3706C127.156 24.885 127.297 25.283 127.579 25.5647C127.872 25.8464 128.246 25.9872 128.699 25.9872C129.238 25.9872 129.722 25.7974 130.15 25.4177C130.579 25.038 130.849 24.5114 130.959 23.8378ZM140.194 29.1286C139.336 29.1286 138.571 29 137.897 28.7428C137.224 28.4856 136.697 28.1243 136.317 27.6589C135.938 27.1813 135.748 26.6363 135.748 26.0239C135.748 25.9137 135.76 25.7484 135.785 25.5279H139.257C139.244 25.8708 139.348 26.1342 139.569 26.3179C139.789 26.5016 140.096 26.5934 140.487 26.5934C140.794 26.5934 141.045 26.5322 141.241 26.4097C141.449 26.2873 141.553 26.128 141.553 25.9321C141.553 25.6994 141.424 25.5218 141.167 25.3993C140.91 25.2646 140.481 25.0993 139.881 24.9033C139.183 24.6829 138.608 24.4685 138.154 24.2603C137.701 24.0521 137.303 23.746 136.96 23.3418C136.63 22.9377 136.464 22.4171 136.464 21.7803C136.464 21.1679 136.642 20.6168 136.997 20.1269C137.364 19.637 137.879 19.2574 138.54 18.9879C139.201 18.7063 139.967 18.5654 140.836 18.5654C141.767 18.5654 142.569 18.7246 143.243 19.0431C143.929 19.3492 144.437 19.7779 144.768 20.329C145.111 20.8801 145.264 21.4925 145.227 22.1661H141.994C142.006 21.8354 141.908 21.5782 141.7 21.3945C141.492 21.1986 141.192 21.1006 140.8 21.1006C140.518 21.1006 140.285 21.1618 140.102 21.2843C139.918 21.4068 139.826 21.566 139.826 21.7619C139.826 21.9946 139.955 22.1783 140.212 22.313C140.481 22.4478 140.928 22.6192 141.553 22.8274C142.239 23.0479 142.808 23.2683 143.261 23.4888C143.727 23.697 144.125 23.997 144.456 24.3889C144.786 24.7686 144.952 25.2585 144.952 25.8586C144.952 26.8751 144.511 27.6773 143.629 28.2652C142.747 28.8408 141.602 29.1286 140.194 29.1286ZM154.75 18.6022C155.754 18.6022 156.538 18.89 157.101 19.4656C157.665 20.0412 157.946 20.8434 157.946 21.8721C157.946 22.2273 157.91 22.6009 157.836 22.9928L156.771 29H153.17L154.144 23.4704C154.18 23.2867 154.199 23.1214 154.199 22.9744C154.199 22.5335 154.07 22.1906 153.813 21.9456C153.568 21.7007 153.219 21.5782 152.766 21.5782C152.264 21.5782 151.835 21.7313 151.48 22.0375C151.125 22.3437 150.886 22.7662 150.763 23.3051L149.753 29H146.134L148.54 15.4056H152.159L151.314 20.1637C151.719 19.6983 152.215 19.3247 152.802 19.0431C153.39 18.7491 154.039 18.6022 154.75 18.6022Z" fill="#1F34E9"/>
<defs>
<linearGradient id="paint0_linear_109_445" x1="46.9829" y1="22.7405" x2="9.63092" y2="22.7405" gradientUnits="userSpaceOnUse">
<stop stop-color="#1E27E7"/>
<stop offset="0.996006" stop-color="#2CD1FF"/>
<stop offset="1" stop-color="#2CD1FF"/>
</linearGradient>
<linearGradient id="paint1_linear_109_445" x1="30.5868" y1="26.0007" x2="0.896784" y2="26.0006" gradientUnits="userSpaceOnUse">
<stop stop-color="#1E27E7"/>
<stop offset="0.996006" stop-color="#2CD1FF"/>
<stop offset="1" stop-color="#2CD1FF"/>
</linearGradient>
<linearGradient id="paint2_linear_109_445" x1="22.1638" y1="41.1894" x2="22.1638" y2="5.81027" gradientUnits="userSpaceOnUse">
<stop stop-color="#1E27E7"/>
<stop offset="0.996006" stop-color="#2CD1FF"/>
<stop offset="1" stop-color="#2CD1FF"/>
</linearGradient>
</defs>
</svg>
