<svg width="713" height="596" viewBox="0 0 713 596" fill="none" xmlns="http://www.w3.org/2000/svg">
<path fill-rule="evenodd" clip-rule="evenodd" d="M419.662 463.737C356.957 462.122 284.347 475.76 237.104 443.237C189.793 410.667 198.064 351.963 186.603 303.295C177.825 266.017 178.152 229.978 177.956 192.064C177.722 146.913 153.877 97.2203 185.339 59.4809C217.121 21.3587 280.146 2.87368 337.936 0.165006C391.407 -2.34125 433.577 32.3829 484.506 45.4587C533.378 58.0061 590.503 50.1512 630.749 75.3423C673.868 102.331 700.044 143.882 709.937 186.562C720.037 230.131 702.329 272.938 686.398 315.412C668.038 364.359 662.985 423.412 610.056 452.845C556.995 482.351 484.574 465.409 419.662 463.737Z" fill="#1F34E9"/>
<path fill-rule="evenodd" clip-rule="evenodd" d="M269.393 224.154C323.846 225.415 374.048 241.836 418.721 264.159C464.149 286.86 510.145 313.631 524.937 351.85C539.472 389.405 521.002 429.367 496.071 464.011C473.949 494.752 431.602 512.339 393.891 533.951C353.864 556.891 320.097 588.46 269.393 593.919C215.14 599.761 157.692 588.127 114.346 564.051C71.6987 540.363 46.6925 503.285 37.6352 465.192C29.3731 430.443 54.4849 398.296 66.8215 364.171C80.2221 327.103 74.3944 283.669 112.873 257.073C152.973 229.355 213.68 222.863 269.393 224.154Z" fill="#FFCC00"/>
<path fill-rule="evenodd" clip-rule="evenodd" d="M298.873 231.114C300.686 230.144 302.866 230.157 304.668 231.149L571.888 378.219V387.11C571.888 388.194 571.31 389.196 570.372 389.739L401.569 487.443C399.687 488.532 397.366 488.533 395.483 487.444L129.934 333.819C128.996 333.277 128.418 332.274 128.418 331.19L128.418 322.3L298.873 231.114Z" fill="url(#paint0_linear_109_66)"/>
<path fill-rule="evenodd" clip-rule="evenodd" d="M298.873 229.021C300.686 228.051 302.866 228.064 304.668 229.055L571.888 376.126V385.017C571.888 386.101 571.31 387.103 570.372 387.646L401.569 485.35C399.687 486.439 397.366 486.439 395.483 485.35L129.934 331.726C128.996 331.183 128.418 330.181 128.418 329.097L128.418 320.207L298.873 229.021Z" fill="url(#paint1_linear_109_66)"/>
<path fill-rule="evenodd" clip-rule="evenodd" d="M298.741 220.098C300.621 219.013 302.938 219.013 304.818 220.099L570.375 373.495C572.4 374.665 572.4 377.587 570.375 378.756L401.565 476.234C399.685 477.32 397.368 477.32 395.488 476.234L129.931 322.837C127.906 321.668 127.906 318.746 129.931 317.576L298.741 220.098Z" fill="url(#paint2_linear_109_66)"/>
<path opacity="0.246257" fill-rule="evenodd" clip-rule="evenodd" d="M312.888 241.967C311.228 240.994 309.167 241.012 307.523 242.013L254.71 274.176C253.576 274.867 253.6 276.522 254.754 277.179L470.992 400.362C474.185 402.18 478.097 402.19 481.299 400.389L530.637 372.628C531.809 371.968 531.824 370.285 530.663 369.605L312.888 241.967Z" fill="url(#paint3_linear_109_66)"/>
<path fill-rule="evenodd" clip-rule="evenodd" d="M291.551 320.824C292.223 320.441 293.046 320.441 293.717 320.824L389.835 375.613C390.571 376.033 390.571 377.094 389.835 377.514L328.735 412.33C328.064 412.713 327.24 412.713 326.569 412.33L230.452 357.54C229.716 357.121 229.716 356.06 230.452 355.64L291.551 320.824Z" fill="url(#paint4_linear_109_66)"/>
<mask id="mask0_109_66" style="mask-type:alpha" maskUnits="userSpaceOnUse" x="229" y="320" width="162" height="93">
<path fill-rule="evenodd" clip-rule="evenodd" d="M291.551 320.824C292.223 320.441 293.046 320.441 293.717 320.824L389.835 375.613C390.571 376.033 390.571 377.094 389.835 377.514L328.735 412.33C328.064 412.713 327.24 412.713 326.569 412.33L230.452 357.54C229.716 357.121 229.716 356.06 230.452 355.64L291.551 320.824Z" fill="white"/>
</mask>
<g mask="url(#mask0_109_66)">
<path fill-rule="evenodd" clip-rule="evenodd" d="M291.551 325.385C292.223 325.002 293.046 325.002 293.717 325.385L389.835 380.174C390.571 380.594 390.571 381.655 389.835 382.075L328.735 416.891C328.064 417.274 327.241 417.274 326.569 416.891L230.452 362.101C229.716 361.682 229.716 360.621 230.452 360.201L291.551 325.385Z" fill="url(#paint5_linear_109_66)"/>
</g>
<path fill-rule="evenodd" clip-rule="evenodd" d="M308.02 15.1635C308.881 14.819 309.853 14.887 310.658 15.3482L576.437 167.609C578.326 168.692 579.492 170.703 579.492 172.881V368.324C579.492 369.392 578.932 370.38 578.017 370.929L574.232 373.2C572.79 374.065 570.987 374.065 569.545 373.2L309.213 217.025C307.426 215.953 306.313 214.04 306.265 211.956L301.853 20.8204C301.809 18.9192 302.95 17.1907 304.716 16.4846L308.02 15.1635Z" fill="#80B1FF"/>
<path fill-rule="evenodd" clip-rule="evenodd" d="M301.779 19.8807C301.779 17.5421 304.311 16.0807 306.336 17.2504L571.893 170.646C573.772 171.732 574.93 173.737 574.93 175.907V370.863C574.93 373.202 572.398 374.663 570.373 373.494L304.816 220.098C302.937 219.012 301.779 217.007 301.779 214.837V19.8807Z" fill="url(#paint6_linear_109_66)"/>
<path fill-rule="evenodd" clip-rule="evenodd" d="M312.424 34.3825L563.343 179.702V356.694L312.424 211.375V34.3825Z" fill="url(#paint7_linear_109_66)"/>
<path fill-rule="evenodd" clip-rule="evenodd" d="M284.02 32.7652C280.124 30.4802 275.219 33.2898 275.219 37.8065V159.061C275.219 165.294 278.528 171.058 283.91 174.201L428.997 258.936C432.893 261.211 437.789 258.401 437.789 253.889V132.992C437.789 126.771 434.492 121.016 429.126 117.868L284.02 32.7652Z" fill="#C7DCFF"/>
<path fill-rule="evenodd" clip-rule="evenodd" d="M288.828 60.5444L305.202 69.8786V154.583L288.828 145.249V60.5444Z" fill="#528BE1"/>
<path fill-rule="evenodd" clip-rule="evenodd" d="M318.068 78.1909L334.442 87.5251V171.053L318.068 161.719V78.1909Z" fill="#528BE1"/>
<path fill-rule="evenodd" clip-rule="evenodd" d="M347.307 93.4849L363.681 102.819V187.524L347.307 178.189V93.4849Z" fill="#528BE1"/>
<path fill-rule="evenodd" clip-rule="evenodd" d="M376.546 109.955L392.92 119.289V203.994L376.546 194.66L376.546 109.955Z" fill="#528BE1"/>
<path fill-rule="evenodd" clip-rule="evenodd" d="M405.785 125.249L422.159 134.583V216.935L405.785 207.601L405.785 125.249Z" fill="#528BE1"/>
<path fill-rule="evenodd" clip-rule="evenodd" d="M288.828 136.94L305.202 146.274V168.7L288.828 159.366L288.828 136.94Z" fill="white"/>
<path fill-rule="evenodd" clip-rule="evenodd" d="M318.068 115.359L334.442 124.694V185.171L318.068 175.836V115.359Z" fill="white"/>
<path fill-rule="evenodd" clip-rule="evenodd" d="M347.307 145.249L363.681 154.583V201.641L347.307 192.307V145.249Z" fill="white"/>
<path fill-rule="evenodd" clip-rule="evenodd" d="M376.546 147.602L392.92 156.936V218.111L376.546 208.777L376.546 147.602Z" fill="white"/>
<path fill-rule="evenodd" clip-rule="evenodd" d="M405.785 139.367L422.159 148.701V231.053L405.785 221.718L405.785 139.367Z" fill="white"/>
<path fill-rule="evenodd" clip-rule="evenodd" d="M466.533 142.145C462.637 139.86 457.732 142.67 457.732 147.186V268.441C457.732 274.674 461.041 280.438 466.423 283.581L611.51 368.316C615.406 370.591 620.302 367.781 620.302 363.269V242.372C620.302 236.151 617.005 230.396 611.639 227.248L466.533 142.145Z" fill="#C7DCFF"/>
<path fill-rule="evenodd" clip-rule="evenodd" d="M471.342 258.636L487.715 267.97V278.08L471.342 268.746L471.342 258.636Z" fill="#98BDF4"/>
<path fill-rule="evenodd" clip-rule="evenodd" d="M500.581 261.688L516.955 271.022V294.551L500.581 285.217L500.581 261.688Z" fill="#98BDF4"/>
<path fill-rule="evenodd" clip-rule="evenodd" d="M529.819 285.418L546.193 294.753V311.021L529.819 301.687V285.418Z" fill="#98BDF4"/>
<path fill-rule="evenodd" clip-rule="evenodd" d="M559.059 275.456L575.433 284.79V327.491L559.059 318.157L559.059 275.456Z" fill="#98BDF4"/>
<path fill-rule="evenodd" clip-rule="evenodd" d="M588.298 267.22L604.672 276.554V340.432L588.298 331.098L588.298 267.22Z" fill="#98BDF4"/>
<path d="M604.672 255.217C604.672 255.217 592.828 249.969 571.293 255.217C549.758 260.465 545.141 275.164 528.444 258.636C511.747 242.108 508.768 244.374 471.342 248.032" stroke="white" stroke-width="6.14933" stroke-linecap="round"/>
<path fill-rule="evenodd" clip-rule="evenodd" d="M542.053 272.094C540.13 273.076 537.039 270.86 535.15 267.145C533.26 263.43 533.287 259.622 535.21 258.641C537.133 257.659 540.223 259.875 542.113 263.59C544.002 267.305 543.975 271.113 542.053 272.094Z" fill="url(#paint8_linear_109_66)"/>
<path d="M543.067 274.087C540.981 275.152 538.779 274.27 537.286 273.2C535.691 272.056 534.231 270.271 533.158 268.161C532.085 266.051 531.502 263.818 531.515 261.853C531.529 260.015 532.111 257.712 534.196 256.648C536.282 255.583 538.484 256.465 539.976 257.535C541.572 258.679 543.032 260.464 544.105 262.574C545.178 264.684 545.761 266.917 545.747 268.882C545.734 270.72 545.152 273.023 543.067 274.087Z" stroke="white" stroke-opacity="0.285621" stroke-width="4.47224"/>
<path fill-rule="evenodd" clip-rule="evenodd" d="M259.347 327.212C259.347 327.212 256.042 328.33 256.673 332.895C257.304 337.459 259.713 335.868 260.876 340.078C262.039 344.288 265.823 347.799 267.928 348.407C270.033 349.016 274.148 349.793 274.97 346.399C275.792 343.005 259.347 327.212 259.347 327.212Z" fill="#30334F"/>
<path fill-rule="evenodd" clip-rule="evenodd" d="M260.434 326.005C260.434 326.005 255.523 329.863 259.635 335.782C263.747 341.702 263.845 347.091 270.87 347.696C277.895 348.302 274.632 343.805 272.423 340.476C269.826 336.962 268.826 329.269 268.826 329.269L260.434 326.005Z" fill="#181E36"/>
<path fill-rule="evenodd" clip-rule="evenodd" d="M293.766 229.43C293.766 229.43 300.607 272.448 299.852 287.457C299.096 302.465 268.656 332.582 268.656 332.582C268.656 332.582 260.959 332.041 259.411 325.402L279.76 287.457L269.85 231.185L293.766 229.43Z" fill="#092965"/>
<mask id="mask1_109_66" style="mask-type:alpha" maskUnits="userSpaceOnUse" x="259" y="229" width="41" height="104">
<path fill-rule="evenodd" clip-rule="evenodd" d="M293.766 229.43C293.766 229.43 300.607 272.448 299.852 287.457C299.096 302.465 268.656 332.582 268.656 332.582C268.656 332.582 260.959 332.041 259.411 325.402L279.76 287.457L269.85 231.185L293.766 229.43Z" fill="white"/>
</mask>
<g mask="url(#mask1_109_66)">
</g>
<path fill-rule="evenodd" clip-rule="evenodd" d="M293.08 359.141C293.08 359.141 292.584 360.57 292.75 362.433C292.915 364.297 298.56 366.025 299.786 366.555C301.011 367.085 302.343 372.28 309.184 373.448C316.024 374.615 318.826 372.517 318.299 370.166C317.771 367.815 293.08 359.141 293.08 359.141Z" fill="#30334F"/>
<path fill-rule="evenodd" clip-rule="evenodd" d="M304.309 350.118C304.309 350.118 310.314 360.317 316.235 366.166C322.156 372.015 314.014 373.358 308.388 372.015C302.762 370.671 301.651 365.044 298.725 364.138C297.579 363.783 293.283 361.955 292.81 359.71C292.478 358.133 293.971 352.178 293.971 352.178" fill="#181E36"/>
<path fill-rule="evenodd" clip-rule="evenodd" d="M255.476 234.403C255.476 234.403 255.467 252.405 260.688 264.185C262.326 267.879 271.718 280.907 276.044 292.869C280.917 306.341 292.708 352.533 292.708 352.533C292.708 352.533 294.46 356.012 299.786 355.445C305.111 354.877 305.978 351.607 305.978 351.607C305.978 351.607 298.084 297.27 293.423 282.638C288.763 268.007 281.025 230.213 281.025 230.213L255.476 234.403Z" fill="url(#paint9_linear_109_66)"/>
<path d="M257.757 247.902C257.757 247.902 269.392 276.403 280.031 292.999C283.172 298.175 294.805 355.14 294.805 355.14" stroke="#1C478A" stroke-width="0.690693"/>
<path fill-rule="evenodd" clip-rule="evenodd" d="M291.643 174.874C294.286 175.153 308.223 218.931 308.223 218.931L326.625 242.926C326.625 242.926 324.679 241.978 322.595 243.227C320.511 244.475 317.95 246.196 317.95 246.196C317.95 246.196 301.571 230.801 298.889 227.722C296.206 224.642 286.287 191.523 286.858 186.083C287.429 180.644 289 174.596 291.643 174.874Z" fill="url(#paint10_linear_109_66)"/>
<mask id="mask2_109_66" style="mask-type:alpha" maskUnits="userSpaceOnUse" x="286" y="174" width="41" height="73">
<path fill-rule="evenodd" clip-rule="evenodd" d="M291.643 174.874C294.286 175.153 308.223 218.931 308.223 218.931L326.625 242.926C326.625 242.926 324.679 241.978 322.595 243.227C320.511 244.475 317.95 246.196 317.95 246.196C317.95 246.196 301.571 230.801 298.889 227.722C296.206 224.642 286.287 191.523 286.858 186.083C287.429 180.644 289 174.596 291.643 174.874Z" fill="white"/>
</mask>
<g mask="url(#mask2_109_66)">
<path fill-rule="evenodd" clip-rule="evenodd" d="M290.381 221.487C290.381 221.487 298.61 209.148 296.869 202.285C295.128 195.423 291.914 185.512 292.281 182.014C292.648 178.516 283.316 184.591 283.316 184.591L290.381 221.487Z" fill="#0B224E"/>
</g>
<path fill-rule="evenodd" clip-rule="evenodd" d="M270.898 178.056C264.878 181.44 254.294 188.38 252.302 190.98C250.309 193.579 253.57 205.839 256.306 211.486C259.042 217.134 256.749 232.597 255.028 236.773C254.56 237.91 271.082 243.714 282.627 238.768C292.559 234.512 292.197 229.504 291.309 224.795C290.42 220.087 291.146 213.171 291.146 213.171C291.146 213.171 293.154 194.544 292.524 190.268C291.895 185.992 294.133 176.494 292.211 175.182C290.289 173.87 276.918 174.672 270.898 178.056Z" fill="white"/>
<mask id="mask3_109_66" style="mask-type:alpha" maskUnits="userSpaceOnUse" x="251" y="174" width="43" height="67">
<path fill-rule="evenodd" clip-rule="evenodd" d="M270.898 178.056C264.878 181.44 254.294 188.38 252.302 190.98C250.309 193.579 253.57 205.839 256.306 211.486C259.042 217.134 256.749 232.597 255.028 236.773C254.56 237.91 271.082 243.714 282.627 238.768C292.559 234.512 292.197 229.504 291.309 224.795C290.42 220.087 291.146 213.171 291.146 213.171C291.146 213.171 293.154 194.544 292.524 190.268C291.895 185.992 294.133 176.494 292.211 175.182C290.289 173.87 276.918 174.672 270.898 178.056Z" fill="white"/>
</mask>
<g mask="url(#mask3_109_66)">
<path fill-rule="evenodd" clip-rule="evenodd" d="M279.889 187.342L287.84 189.382C287.84 189.382 284.846 181.152 282.276 178.756C279.705 176.359 279.9 178.759 279.9 178.759C279.9 178.759 280.515 179.426 280.624 182.005C280.732 184.584 279.889 187.342 279.889 187.342Z" fill="url(#paint11_linear_109_66)" fill-opacity="0.2"/>
<g style="mix-blend-mode:multiply">
<path fill-rule="evenodd" clip-rule="evenodd" d="M277.906 175.586C282.105 177.078 285.625 185.743 287.944 195.776C290.262 205.809 289.376 212.236 287.571 220.112C286.687 223.971 285.557 228.051 285.402 231.272C285.241 234.626 285.267 237.736 286.01 239.214C287.465 242.111 293.661 247.479 293.661 247.479C293.661 247.479 288.376 240.706 288.848 235.168C289.32 229.63 295.643 211.105 295.525 204.814C295.407 198.523 292.862 192.422 292.742 187.399C292.621 182.376 294.108 176.734 292.27 175.211C290.432 173.688 283.933 174.439 277.906 175.586Z" fill="url(#paint12_linear_109_66)" fill-opacity="0.2"/>
</g>
<path fill-rule="evenodd" clip-rule="evenodd" d="M266.687 177.862C263.091 179.925 266.338 184.832 271.852 186.458C275.772 187.613 279.687 189.795 279.687 189.795C279.687 189.795 280.855 185.161 280.858 183.009C280.868 175.523 274.657 172.66 274.657 172.66C274.657 172.66 270.283 175.8 266.687 177.862Z" fill="url(#paint13_linear_109_66)"/>
<path fill-rule="evenodd" clip-rule="evenodd" d="M278.043 190.838L279.536 227.227L284.642 231.698L286.589 224.871L281.043 189.593L278.043 190.838Z" fill="url(#paint14_linear_109_66)"/>
<path fill-rule="evenodd" clip-rule="evenodd" d="M277.163 187.958L280.426 187.327L282.264 187.951L281.298 191.14L278.042 191.843L275.416 189.855L277.163 187.958Z" fill="#092965"/>
<path fill-rule="evenodd" clip-rule="evenodd" d="M277.163 187.958L272.164 194.488C272.164 194.488 265.879 182.97 267.879 178.36C267.879 178.36 268.149 183.341 271.152 185.174C274.155 187.007 277.163 187.958 277.163 187.958Z" fill="url(#paint15_linear_109_66)"/>
</g>
<path fill-rule="evenodd" clip-rule="evenodd" d="M268.393 179.491C267.3 181.459 273.405 196.384 275.017 205.001C276.63 213.619 277.087 228.52 277.486 237.069C277.695 241.538 280.1 251.034 280.1 251.034C280.1 251.034 260.468 255.547 252.883 244.969C253.962 241.472 253.97 236.031 255.241 230.066C256.513 224.102 257.216 212.353 252.912 201.914C251.409 192.013 251.113 191.53 251.113 191.53C251.113 191.53 255.384 186.839 268.393 179.491Z" fill="#092965"/>
<mask id="mask4_109_66" style="mask-type:alpha" maskUnits="userSpaceOnUse" x="251" y="179" width="30" height="73">
<path fill-rule="evenodd" clip-rule="evenodd" d="M268.393 179.491C267.3 181.459 273.405 196.384 275.017 205.001C276.63 213.619 277.087 228.52 277.486 237.069C277.695 241.538 280.1 251.034 280.1 251.034C280.1 251.034 260.468 255.547 252.883 244.969C253.962 241.472 253.97 236.031 255.241 230.066C256.513 224.102 257.216 212.353 252.912 201.914C251.409 192.013 251.113 191.53 251.113 191.53C251.113 191.53 255.384 186.839 268.393 179.491Z" fill="white"/>
</mask>
<g mask="url(#mask4_109_66)">
<path fill-rule="evenodd" clip-rule="evenodd" d="M276.148 228.522C275.315 214.175 265.531 208.942 265.531 208.942L269.167 200.655L264.016 198.843C264.016 198.843 265.939 188.567 266.139 184.891C266.339 181.216 266.634 180.35 266.634 180.35L268.165 177.785C268.165 177.785 271.059 175.978 273.129 175.784C275.2 175.59 270.211 178.734 270.211 178.734C270.211 178.734 269.435 178.709 268.874 179.273C268.314 179.837 278.86 206.835 278.86 206.835C278.86 206.835 276.982 242.868 276.148 228.522Z" fill="#0B224E"/>
</g>
<path fill-rule="evenodd" clip-rule="evenodd" d="M266.139 184.891C266.006 187.342 265.283 191.076 263.97 196.093L269.465 199.354L266.127 206.342C270.18 214.025 276.695 221.159 277.253 230.716C276.84 221.237 276.553 213.211 275.017 205.001C273.405 196.384 267.295 181.49 268.389 179.522C269.261 177.587 270.574 177.146 270.574 177.146C270.574 177.146 270.841 176.684 270.253 176.957C269.664 177.229 268.597 177.715 267.88 178.36C267.196 178.974 266.786 179.519 266.582 180.526C266.408 181.203 266.261 182.658 266.139 184.891Z" fill="url(#paint16_linear_109_66)"/>
<path fill-rule="evenodd" clip-rule="evenodd" d="M277.906 175.586C282.105 177.078 286.809 185.618 288.549 195.404C290.289 205.191 289.376 212.235 287.571 220.112C285.766 227.989 288.977 234.877 290.433 237.774C291.888 240.671 294.452 245.505 294.452 245.505C294.452 245.505 295.694 241.303 295.757 235.673C295.819 230.042 292.43 217.292 292.312 211C292.237 206.983 293.129 201.949 293.284 196.494C293.372 193.407 293.328 188.648 293.284 186.832C293.164 181.809 294.108 176.734 292.27 175.211C290.432 173.688 283.933 174.439 277.906 175.586Z" fill="#092965"/>
<path fill-rule="evenodd" clip-rule="evenodd" d="M277.905 175.586C282.105 177.078 286.809 185.618 288.548 195.405C290.288 205.191 289.376 212.236 287.571 220.112C287.204 221.713 287.262 223.98 287.309 225.774C287.323 226.321 287.336 226.824 287.335 227.251C287.335 227.499 287.331 227.745 287.324 227.987C287.425 228.116 287.488 228.063 287.509 227.803C287.872 223.277 293.754 206.129 293.754 206.129L290.441 195.645L291.974 193.879C291.974 193.879 284.044 178.659 279.372 175.317C278.882 175.403 278.392 175.493 277.905 175.586Z" fill="url(#paint17_linear_109_66)"/>
<path fill-rule="evenodd" clip-rule="evenodd" d="M267.695 166.417C267.695 166.417 267.864 169.603 268.351 173.058C268.839 176.513 268.329 178.805 268.329 178.805C268.329 178.805 269.096 182.648 273.645 184.263C278.195 185.877 279.78 182.605 279.78 182.605L279.071 173.734L267.695 166.417Z" fill="#FCCBCB"/>
<mask id="mask5_109_66" style="mask-type:alpha" maskUnits="userSpaceOnUse" x="267" y="166" width="13" height="19">
<path fill-rule="evenodd" clip-rule="evenodd" d="M267.695 166.417C267.695 166.417 267.864 169.603 268.351 173.058C268.839 176.513 268.329 178.805 268.329 178.805C268.329 178.805 269.096 182.648 273.645 184.263C278.195 185.877 279.78 182.605 279.78 182.605L279.071 173.734L267.695 166.417Z" fill="white"/>
</mask>
<g mask="url(#mask5_109_66)">
<path fill-rule="evenodd" clip-rule="evenodd" d="M279.549 181.987C279.549 181.987 274.409 181.682 271.83 178.719C269.25 175.756 269.56 170.454 269.56 170.454L279.762 172.569L279.549 181.987Z" fill="url(#paint18_linear_109_66)"/>
</g>
<path fill-rule="evenodd" clip-rule="evenodd" d="M284.101 158.745C284.101 158.745 284.546 161.075 284.294 167.19C284.041 173.304 283.646 177.569 283.105 178.512C282.565 179.455 278.919 180.553 275.525 179.068C272.131 177.584 270.431 175.77 269.841 174.35C269.252 172.929 268.581 170.77 267.583 167.891C266.586 165.012 263.846 160.51 264.991 157.142C266.136 153.773 269.783 150.83 275.363 151.903C280.942 152.976 284.101 158.745 284.101 158.745Z" fill="#FCCBCB"/>
<mask id="mask6_109_66" style="mask-type:alpha" maskUnits="userSpaceOnUse" x="264" y="151" width="21" height="29">
<path fill-rule="evenodd" clip-rule="evenodd" d="M284.101 158.745C284.101 158.745 284.546 161.075 284.294 167.19C284.041 173.304 283.646 177.569 283.105 178.512C282.565 179.455 278.919 180.553 275.525 179.068C272.131 177.584 270.431 175.77 269.841 174.35C269.252 172.929 268.581 170.77 267.583 167.891C266.586 165.012 263.846 160.51 264.991 157.142C266.136 153.773 269.783 150.83 275.363 151.903C280.942 152.976 284.101 158.745 284.101 158.745Z" fill="white"/>
</mask>
<g mask="url(#mask6_109_66)">
</g>
<path fill-rule="evenodd" clip-rule="evenodd" d="M272.221 159.039C272.221 159.039 276.008 161.36 280.244 161.389C284.48 161.417 286.286 159.627 285.773 156.805C285.26 153.983 281.605 150.221 274.685 149.695C267.765 149.17 266.066 154.368 266.066 154.368C266.066 154.368 264.067 154.525 263.752 156.714C263.436 158.904 265.362 166.001 266.594 167.514C267.826 169.027 268.634 166.309 268.634 166.309C268.634 166.309 268.558 169.039 269.154 168.395C269.751 167.752 270.117 167.836 269.985 165.945C269.853 164.054 270.174 162.892 271.044 162.895C271.914 162.898 272.961 161.386 272.778 160.355C272.595 159.324 272.221 159.039 272.221 159.039Z" fill="#30334F"/>
<mask id="mask7_109_66" style="mask-type:alpha" maskUnits="userSpaceOnUse" x="263" y="149" width="23" height="20">
<path fill-rule="evenodd" clip-rule="evenodd" d="M272.221 159.039C272.221 159.039 276.008 161.36 280.244 161.389C284.48 161.417 286.286 159.627 285.773 156.805C285.26 153.983 281.605 150.221 274.685 149.695C267.765 149.17 266.066 154.368 266.066 154.368C266.066 154.368 264.067 154.525 263.752 156.714C263.436 158.904 265.362 166.001 266.594 167.514C267.826 169.027 268.634 166.309 268.634 166.309C268.634 166.309 268.558 169.039 269.154 168.395C269.751 167.752 270.117 167.836 269.985 165.945C269.853 164.054 270.174 162.892 271.044 162.895C271.914 162.898 272.961 161.386 272.778 160.355C272.595 159.324 272.221 159.039 272.221 159.039Z" fill="white"/>
</mask>
<g mask="url(#mask7_109_66)">
<path fill-rule="evenodd" clip-rule="evenodd" d="M270.734 163.308C270.734 163.308 267.204 160.899 265.225 161.09C263.247 161.282 263.07 162.968 263.07 162.968C263.07 162.968 266.583 170.639 266.944 170.677C267.306 170.715 271.2 170.321 271.2 170.321L270.734 163.308Z" fill="url(#paint19_linear_109_66)"/>
<path fill-rule="evenodd" clip-rule="evenodd" d="M266.489 154.845L271.736 158.823C271.736 158.823 269.688 157.727 268.167 156.734C266.645 155.742 266.489 154.845 266.489 154.845Z" fill="#031120"/>
<path fill-rule="evenodd" clip-rule="evenodd" d="M274.674 158.003C274.674 158.003 280.891 160.554 283.884 157.228C280.356 159.73 274.674 158.003 274.674 158.003Z" fill="#031120"/>
</g>
<path fill-rule="evenodd" clip-rule="evenodd" d="M268.591 164.983C268.591 164.983 268.391 164.19 267.287 163.72C266.183 163.25 265.147 164.978 265.876 166.734C266.326 167.819 266.703 168.575 267.472 169.22C267.663 169.38 268.055 169.281 268.055 169.281C268.055 169.281 268.21 169.744 268.304 169.999C268.504 169.087 268.602 167.623 268.616 167.023C268.643 165.86 268.591 164.983 268.591 164.983Z" fill="#FCCBCB"/>
<path fill-rule="evenodd" clip-rule="evenodd" d="M267.922 165.27C267.922 165.27 267.335 164.636 266.859 164.772C266.382 164.908 266.101 165.935 266.733 166.894C267.365 167.852 267.741 167.933 267.741 167.933L267.922 165.27Z" fill="url(#paint20_linear_109_66)"/>
<path fill-rule="evenodd" clip-rule="evenodd" d="M290.005 254.732C290.102 254.732 292.367 263.927 307.349 264.114C322.332 264.301 291.359 249.717 291.359 249.717C291.359 249.717 289.909 254.732 290.005 254.732Z" fill="url(#paint21_linear_109_66)"/>
<path fill-rule="evenodd" clip-rule="evenodd" d="M251.693 190.959C245.251 196.142 244.706 211.305 253.117 225.437C261.528 239.57 257.666 236.13 263.984 240.587C270.301 245.043 290.887 257.877 290.887 257.877C290.887 257.877 292.095 252.318 297.388 252.318L270.512 229.022C270.512 229.022 258.434 190.182 251.693 190.959Z" fill="url(#paint22_linear_109_66)"/>
<path fill-rule="evenodd" clip-rule="evenodd" d="M290.399 254.114C290.892 254.114 291.291 253.708 291.291 253.208C291.291 252.708 290.892 252.303 290.399 252.303C289.906 252.303 289.507 252.708 289.507 253.208C289.507 253.708 289.906 254.114 290.399 254.114Z" fill="#D8D8D8"/>
<path d="M327.451 281.764C311.676 281.764 298.887 273.644 298.887 263.629C298.887 262.174 298.887 258.096 298.887 258.096C298.887 258.096 313.967 245.494 327.451 245.494C343.227 245.494 356.015 253.613 356.015 263.629C356.015 273.644 343.227 281.764 327.451 281.764Z" fill="#C06100"/>
<path fill-rule="evenodd" clip-rule="evenodd" d="M327.451 278.075C311.676 278.075 298.887 269.956 298.887 259.94C298.887 249.924 311.676 241.805 327.451 241.805C343.227 241.805 356.015 249.924 356.015 259.94C356.015 269.956 343.227 278.075 327.451 278.075Z" fill="white"/>
<path d="M327.451 276.866C311.676 276.866 298.887 268.605 298.887 258.414C298.887 248.222 311.676 239.961 327.451 239.961C343.227 239.961 356.015 248.222 356.015 258.414C356.015 268.605 343.227 276.866 327.451 276.866Z" fill="#FFB74F"/>
<path d="M327.144 273.157C314.252 273.157 303.801 266.552 303.801 258.403C303.801 250.255 314.252 243.649 327.144 243.649C340.036 243.649 350.487 250.255 350.487 258.403C350.487 266.552 340.036 273.157 327.144 273.157Z" fill="#C06100"/>
<mask id="mask8_109_66" style="mask-type:alpha" maskUnits="userSpaceOnUse" x="303" y="243" width="48" height="31">
<path d="M327.144 273.157C314.252 273.157 303.801 266.552 303.801 258.403C303.801 250.255 314.252 243.649 327.144 243.649C340.036 243.649 350.487 250.255 350.487 258.403C350.487 266.552 340.036 273.157 327.144 273.157Z" fill="white"/>
</mask>
<g mask="url(#mask8_109_66)">
<path d="M327.144 275.616C314.252 275.616 303.801 269.011 303.801 260.862C303.801 252.714 314.252 246.108 327.144 246.108C340.036 246.108 350.487 252.714 350.487 260.862C350.487 269.011 340.036 275.616 327.144 275.616Z" fill="#FF8900"/>
<path fill-rule="evenodd" clip-rule="evenodd" d="M341.309 257.606C341.309 257.606 339.768 256.764 339.069 256.248L341.2 255.413L341.2 252.954L339.069 253.789L337.786 255.302C337.115 254.922 336.337 254.601 335.455 254.34C334.572 254.078 333.653 253.905 332.696 253.818C331.74 253.732 330.753 253.749 329.736 253.87C328.718 253.99 327.732 254.238 326.778 254.611C326.002 254.915 325.321 254.835 324.787 254.773C324.26 254.711 323.878 254.666 323.693 255.026C323.322 255.749 323.599 258.145 324.096 259.061C324.096 259.061 318.891 261.531 318.686 261.07C318.481 260.609 318.534 260.128 318.847 259.625L313.069 257.608C312.803 258.443 313.007 261.162 313.49 261.931C313.973 262.7 313.366 262.405 313.366 262.405L313.366 264.864L314.648 265.81L316.78 264.975C317.516 265.403 318.332 265.764 319.226 266.057C320.121 266.35 321.067 266.543 322.062 266.636C323.058 266.728 324.085 266.706 325.144 266.57C326.202 266.433 327.269 266.155 328.345 265.733C329.766 265.177 330.682 264.529 331.094 263.79C331.506 263.051 331.414 260.085 331.414 260.085L330.025 259.789L334.867 257.893C335.241 258.215 335.532 258.561 335.741 258.933C335.95 259.304 335.996 259.688 335.881 260.084L341.309 260.065L341.309 257.606ZM321.894 263.642C321.582 263.537 321.298 263.425 321.043 263.306L325.61 261.517L325.766 261.873C325.833 262.037 325.888 262.198 325.932 262.357C325.976 262.515 325.98 262.667 325.944 262.812C325.909 262.958 325.815 263.101 325.663 263.241C325.511 263.381 325.272 263.514 324.948 263.641C324.602 263.777 324.254 263.858 323.904 263.886C323.553 263.913 323.208 263.906 322.87 263.863C322.532 263.82 322.206 263.746 321.894 263.642Z" fill="#C06100"/>
<path fill-rule="evenodd" clip-rule="evenodd" d="M339.069 253.789C339.768 254.305 340.352 254.895 340.819 255.56C341.286 256.226 341.449 256.907 341.309 257.606L335.881 257.625C335.996 257.229 335.949 256.845 335.741 256.474C335.532 256.102 335.241 255.756 334.867 255.434L330.025 257.33L331.038 259.039C331.487 259.828 331.506 260.592 331.094 261.331C330.682 262.07 329.766 262.718 328.345 263.274C327.269 263.696 326.202 263.975 325.144 264.111C324.085 264.247 323.058 264.269 322.062 264.177C321.067 264.084 320.121 263.891 319.226 263.598C318.332 263.305 317.516 262.944 316.78 262.516L314.648 263.351L313.366 262.405L315.497 261.571C314.642 260.94 313.973 260.241 313.49 259.472C313.007 258.703 312.898 257.901 313.164 257.066L318.847 257.166C318.534 257.669 318.481 258.15 318.686 258.611C318.891 259.072 319.229 259.51 319.699 259.925L324.845 257.91L324.096 256.602C323.599 255.686 323.536 254.866 323.907 254.143C324.279 253.42 325.236 252.756 326.778 252.152C327.732 251.779 328.718 251.531 329.736 251.411C330.753 251.29 331.74 251.273 332.696 251.359C333.653 251.446 334.572 251.619 335.455 251.881C336.337 252.142 337.115 252.463 337.786 252.843L339.918 252.009L341.2 252.954L339.069 253.789ZM333.493 254.524C333.008 254.305 332.471 254.149 331.882 254.059C331.292 253.968 330.673 254.049 330.023 254.304C329.556 254.487 329.249 254.673 329.102 254.862C328.955 255.051 328.883 255.233 328.886 255.407C328.889 255.581 328.938 255.738 329.032 255.876C329.127 256.015 329.193 256.12 329.23 256.194L333.493 254.524ZM321.894 261.183C321.582 261.078 321.298 260.966 321.043 260.847L325.61 259.059L325.766 259.414C325.833 259.578 325.888 259.739 325.932 259.898C325.976 260.056 325.98 260.208 325.944 260.353C325.909 260.499 325.815 260.642 325.663 260.782C325.511 260.922 325.272 261.055 324.948 261.182C324.602 261.318 324.254 261.399 323.904 261.427C323.553 261.454 323.208 261.447 322.87 261.404C322.532 261.361 322.206 261.287 321.894 261.183Z" fill="#FFB74F"/>
</g>
<path fill-rule="evenodd" clip-rule="evenodd" d="M297.014 258.15C297.014 258.15 302.291 257.447 304.079 258.15C305.868 258.853 301.741 259.528 300.814 260.571C299.887 261.614 297.014 259.447 297.014 259.447V258.15Z" fill="#FCCBCB"/>
<path d="M380.007 302.455C395.782 302.455 408.571 294.336 408.571 284.32C408.571 282.866 408.571 278.787 408.571 278.787C408.571 278.787 393.491 266.185 380.007 266.185C364.231 266.185 351.442 274.304 351.442 284.32C351.442 294.336 364.231 302.455 380.007 302.455Z" fill="#C06100"/>
<path fill-rule="evenodd" clip-rule="evenodd" d="M380.007 298.766C395.782 298.766 408.571 290.647 408.571 280.632C408.571 270.616 395.782 262.497 380.007 262.497C364.231 262.497 351.442 270.616 351.442 280.632C351.442 290.647 364.231 298.766 380.007 298.766Z" fill="white"/>
<path d="M380.007 298.152C395.782 298.152 408.571 290.032 408.571 280.017C408.571 270.001 395.782 261.882 380.007 261.882C364.231 261.882 351.442 270.001 351.442 280.017C351.442 290.032 364.231 298.152 380.007 298.152Z" fill="#FFB74F"/>
<path d="M380.313 293.849C393.205 293.849 403.656 287.243 403.656 279.095C403.656 270.946 393.205 264.341 380.313 264.341C367.422 264.341 356.971 270.946 356.971 279.095C356.971 287.243 367.422 293.849 380.313 293.849Z" fill="#C06100"/>
<mask id="mask9_109_66" style="mask-type:alpha" maskUnits="userSpaceOnUse" x="356" y="264" width="48" height="30">
<path d="M380.313 293.849C393.205 293.849 403.656 287.243 403.656 279.095C403.656 270.946 393.205 264.341 380.313 264.341C367.422 264.341 356.971 270.946 356.971 279.095C356.971 287.243 367.422 293.849 380.313 293.849Z" fill="white"/>
</mask>
<g mask="url(#mask9_109_66)">
<path d="M380.313 296.308C393.205 296.308 403.656 289.702 403.656 281.554C403.656 273.405 393.205 266.8 380.313 266.8C367.422 266.8 356.971 273.405 356.971 281.554C356.971 289.702 367.422 296.308 380.313 296.308Z" fill="#FF8900"/>
<path fill-rule="evenodd" clip-rule="evenodd" d="M375.224 283.386C375.17 283.336 375.119 283.287 375.07 283.236L386.681 278.524C387.099 278.942 387.409 279.095 387.409 279.095V281.159L391.887 281.978C392.098 281.518 392.202 281.06 392.197 280.603C392.192 280.146 392.107 279.705 391.942 279.281C391.777 278.857 391.553 278.452 391.27 278.066C390.994 277.69 390.689 277.345 390.355 277.033L393.288 275.843V273.807L391.369 274.187L388.254 275.475C387.87 275.251 387.469 275.046 387.053 274.86C385.823 274.31 384.517 273.944 383.136 273.763C381.755 273.582 380.335 273.597 378.876 273.807C377.418 274.018 375.991 274.439 374.597 275.072C373.203 275.704 372.104 276.428 371.3 277.245C370.495 278.061 369.988 278.92 369.778 279.823C369.569 280.726 369.653 281.645 370.03 282.583C370.079 282.704 370.133 282.825 370.191 282.946L368.092 281.839V283.814L369.943 285.317L371.429 284.714C371.613 284.915 371.812 285.114 372.026 285.311C372.864 286.087 373.925 286.73 375.21 287.24C376.494 287.75 377.911 288.009 379.461 288.019L379.608 284.864C378.742 284.877 377.933 284.761 377.18 284.517C376.427 284.273 375.775 283.896 375.224 283.386ZM379.893 276.885C380.76 276.737 381.601 276.696 382.417 276.761C383.073 276.814 383.694 276.933 384.281 277.119L374.2 281.288C374.201 280.993 374.255 280.698 374.364 280.403C374.555 279.889 374.901 279.395 375.404 278.922C375.906 278.448 376.568 278.026 377.388 277.654C378.191 277.289 379.026 277.033 379.893 276.885Z" fill="#C06100"/>
<path fill-rule="evenodd" clip-rule="evenodd" d="M375.07 281.186L386.681 276.474C387.099 276.892 387.37 277.31 387.494 277.729C387.632 278.196 387.604 278.656 387.409 279.109L391.887 279.928C392.098 279.468 392.202 279.009 392.197 278.552C392.192 278.095 392.107 277.655 391.942 277.231C391.777 276.807 391.553 276.402 391.27 276.016C390.994 275.639 390.689 275.295 390.355 274.983L393.288 273.792L391.369 272.137L388.254 273.425C387.87 273.201 387.469 272.996 387.053 272.81C385.823 272.26 384.517 271.894 383.136 271.713C381.755 271.532 380.335 271.547 378.876 271.757C377.418 271.968 375.991 272.389 374.597 273.022C373.203 273.654 372.104 274.378 371.3 275.194C370.495 276.01 369.988 276.87 369.778 277.773C369.569 278.675 369.653 279.595 370.03 280.532C370.079 280.654 370.133 280.775 370.191 280.896L368.092 281.764L369.943 283.267L371.429 282.664C371.613 282.864 371.812 283.063 372.026 283.261C372.864 284.037 373.925 284.679 375.21 285.189C376.494 285.699 377.911 285.959 379.461 285.968L379.608 282.814C378.742 282.827 377.933 282.711 377.18 282.467C376.427 282.222 375.775 281.845 375.224 281.335C375.17 281.286 375.119 281.236 375.07 281.186ZM382.417 274.711C383.073 274.764 383.694 274.883 384.281 275.068L374.2 279.238C374.201 278.942 374.255 278.647 374.364 278.352C374.555 277.838 374.901 277.345 375.404 276.871C375.906 276.398 376.568 275.975 377.388 275.603C378.191 275.239 379.026 274.983 379.893 274.835C380.76 274.687 381.601 274.646 382.417 274.711Z" fill="#FFB74F"/>
</g>
<path fill-rule="evenodd" clip-rule="evenodd" d="M416.888 347.055L416.26 351.419C416.26 351.419 418.765 358.812 419.554 368.136C420.344 377.461 419.074 393.584 420.579 396.518C422.084 399.453 421.019 401.49 419.749 402.025C418.479 402.561 416.792 401.236 412.993 398.204C409.194 395.172 404.42 393.38 405.167 391.726C405.914 390.071 412.711 393.367 413.504 392.163C414.297 390.96 406.825 353.446 407.301 350.949C407.776 348.451 408.5 340.641 408.5 340.641L416.888 347.055Z" fill="#FFBBB0"/>
<path fill-rule="evenodd" clip-rule="evenodd" d="M413.092 348.395L412.11 354.096C412.11 354.096 413.763 365.867 414.484 373.272C415.205 380.676 416.563 398.661 416.563 398.661L414.752 399.576L407.451 349.437L413.092 348.395Z" fill="#F29E98"/>
<path fill-rule="evenodd" clip-rule="evenodd" d="M420.701 394.789C420.701 394.789 419.788 394.133 419.247 394.713C418.706 395.293 415.223 396.661 412.943 395.936C410.663 395.211 407.991 393.019 408.031 392.247C408.072 391.475 411.388 389.988 411.388 389.988C411.388 389.988 407.068 388.722 405.389 389.673C403.711 390.624 405.369 394.1 406.905 394.9C408.442 395.7 416.532 401.488 417.105 401.518C417.678 401.548 418.639 406.324 418.639 406.324C418.639 406.324 419.265 406.649 419.863 406.388C419.863 406.388 421.411 400.511 421.527 398.311C421.642 396.111 420.701 394.789 420.701 394.789Z" fill="#181E36"/>
<path fill-rule="evenodd" clip-rule="evenodd" d="M409.77 346.003L409.114 352.892C409.114 352.892 411.672 362.406 412.659 369.153C413.645 375.901 414.489 394.28 415.157 395.992C415.826 397.703 416.504 402.183 414.504 403.178C413.231 403.811 414.403 402.568 410.917 402.442C408.927 402.371 402.123 404.728 400.154 404.625C394.734 404.34 394.796 402.7 395.638 401.923C396.076 401.518 400.155 399.694 400.155 399.694C400.155 399.694 405.564 398.195 406.289 397.238C407.799 395.245 408.121 392.594 407.737 389.573C407.353 386.552 398.707 354.451 398.355 351.514C398.004 348.577 398.037 340.493 398.037 340.493L409.77 346.003Z" fill="#FFBBB0"/>
<rect width="3.07141" height="1.22948" rx="0.531302" transform="matrix(-0.998625 -0.0524176 -0.0522544 0.998634 398.219 243.333)" fill="#30334F"/>
<path fill-rule="evenodd" clip-rule="evenodd" d="M397.587 239.215C397.587 239.215 395.669 243.003 396.148 244.803C396.627 246.604 396.066 248.542 394.951 249.203C393.836 249.864 395.828 250.92 395.828 250.92C395.828 250.92 395.867 253.11 396.506 254.923C397.144 256.736 396.91 258.145 398.956 258.252C401.002 258.36 403.376 258.057 403.376 258.057C403.376 258.057 404.83 260.128 404.254 261.403C403.679 262.679 400.776 263.323 401.332 264.162C401.889 265 416.761 267.372 417.62 266.096C418.48 264.819 411.755 261.667 412.011 256.769C412.268 251.872 412.812 236.186 406.703 235.865C400.595 235.545 397.587 239.215 397.587 239.215Z" fill="#FFBBB0"/>
<path fill-rule="evenodd" clip-rule="evenodd" d="M402.71 249.497C402.71 249.497 403.463 248.534 403.957 248.894C404.45 249.254 404.576 250.145 403.834 251.245C403.092 252.345 402.431 251.413 402.431 251.413L402.71 249.497Z" fill="url(#paint23_linear_109_66)"/>
<path fill-rule="evenodd" clip-rule="evenodd" d="M398.169 298.558C398.169 298.558 395.044 314.238 395.212 324.472C395.381 334.706 396.779 348.486 396.779 348.486C396.779 348.486 400.938 351.175 407.114 351.499C413.291 351.823 417.628 348.765 417.628 348.765C417.628 348.765 420.991 331.206 423.604 327.273C426.217 323.341 429.484 316.239 427.64 307.834C425.797 299.428 420.914 294.795 420.914 294.795C420.914 294.795 414.411 292.543 411.303 293.335C408.195 294.128 398.169 298.558 398.169 298.558Z" fill="url(#paint24_linear_109_66)"/>
<mask id="mask10_109_66" style="mask-type:alpha" maskUnits="userSpaceOnUse" x="395" y="293" width="34" height="59">
<path fill-rule="evenodd" clip-rule="evenodd" d="M398.169 298.558C398.169 298.558 395.044 314.238 395.212 324.472C395.381 334.706 396.779 348.486 396.779 348.486C396.779 348.486 400.938 351.175 407.114 351.499C413.291 351.823 417.628 348.765 417.628 348.765C417.628 348.765 420.991 331.206 423.604 327.273C426.217 323.341 429.484 316.239 427.64 307.834C425.797 299.428 420.914 294.795 420.914 294.795C420.914 294.795 414.411 292.543 411.303 293.335C408.195 294.128 398.169 298.558 398.169 298.558Z" fill="white"/>
</mask>
<g mask="url(#mask10_109_66)">
<path d="M400.767 299.968C400.767 299.968 398.653 314.013 399.037 319.866C399.42 325.718 398.951 350.02 398.951 350.02" stroke="#1C478A" stroke-width="0.531302"/>
</g>
<path fill-rule="evenodd" clip-rule="evenodd" d="M420.453 294.26C420.453 294.26 420.83 298.447 413.5 300.524C406.171 302.6 397.379 301.131 397.546 297.955C397.712 294.778 420.453 294.26 420.453 294.26Z" fill="#092965"/>
<path fill-rule="evenodd" clip-rule="evenodd" d="M399.219 266.236C399.219 266.236 400.787 262.303 403.16 261.075C405.534 259.846 412.931 256.613 413.628 261.255L399.219 266.236Z" fill="#D8D8D8"/>
<path fill-rule="evenodd" clip-rule="evenodd" d="M397.831 241.206C397.831 241.206 396.206 237.568 396.951 234.891C397.696 232.213 400.544 228.869 405.145 230.48C410.988 229.833 417.832 232.368 419.185 240.656C420.538 248.943 418.526 256.395 412.59 257.368C406.654 258.342 403.623 253.589 403.623 253.589C403.623 253.589 406.401 251.41 405.341 249.21C404.281 247.01 401.659 248.78 401.659 248.78L397.831 241.206Z" fill="#30334F"/>
<path fill-rule="evenodd" clip-rule="evenodd" d="M418.21 262.114C418.21 262.114 422.035 262.616 423.348 270.899C424.662 279.182 429.046 288.419 424.64 291.382C420.235 294.346 415.966 281.525 415.966 281.525L418.21 262.114Z" fill="#F0F0F0"/>
<mask id="mask11_109_66" style="mask-type:alpha" maskUnits="userSpaceOnUse" x="415" y="262" width="12" height="30">
<path fill-rule="evenodd" clip-rule="evenodd" d="M418.21 262.114C418.21 262.114 422.035 262.616 423.348 270.899C424.662 279.182 429.046 288.419 424.64 291.382C420.235 294.346 415.966 281.525 415.966 281.525L418.21 262.114Z" fill="white"/>
</mask>
<g mask="url(#mask11_109_66)">
<path fill-rule="evenodd" clip-rule="evenodd" d="M417.228 261.028C417.228 261.028 421.053 261.53 422.367 269.813C423.681 278.095 428.065 287.332 423.659 290.296C419.253 293.26 414.985 280.438 414.985 280.438L417.228 261.028Z" fill="#D8D8D8"/>
</g>
<path fill-rule="evenodd" clip-rule="evenodd" d="M421.34 268.031C420.885 267.162 420.184 263.158 417.854 262.277C414.931 261.173 410.716 261.095 408.184 261.77C403.48 263.024 395.752 267.013 395.009 268.266C394.267 269.518 393.032 274.573 392.323 277.37C391.613 280.167 389.908 287.378 395.593 287.283C395.593 287.283 397.021 290.165 396.889 292.679C396.758 295.192 396.114 296.625 398.263 298.663C400.413 300.701 409.791 300.721 413.986 299.488C418.18 298.256 420.591 295.537 421.801 293.986C423.011 292.436 420.098 285.767 420.098 285.767C420.098 285.767 422.367 269.99 421.34 268.031Z" fill="url(#paint25_linear_109_66)"/>
<mask id="mask12_109_66" style="mask-type:alpha" maskUnits="userSpaceOnUse" x="391" y="261" width="32" height="40">
<path fill-rule="evenodd" clip-rule="evenodd" d="M421.34 268.031C420.885 267.162 420.184 263.158 417.854 262.277C414.931 261.173 410.716 261.095 408.184 261.77C403.48 263.024 395.752 267.013 395.009 268.266C394.267 269.518 393.032 274.573 392.323 277.37C391.613 280.167 389.908 287.378 395.593 287.283C395.593 287.283 397.021 290.165 396.889 292.679C396.758 295.192 396.114 296.625 398.263 298.663C400.413 300.701 409.791 300.721 413.986 299.488C418.18 298.256 420.591 295.537 421.801 293.986C423.011 292.436 420.098 285.767 420.098 285.767C420.098 285.767 422.367 269.99 421.34 268.031Z" fill="white"/>
</mask>
<g mask="url(#mask12_109_66)">
<path fill-rule="evenodd" clip-rule="evenodd" d="M395.819 270.707C395.819 270.707 398.132 283.194 392.855 289.353C387.578 295.513 394.529 295.366 394.529 295.366C394.529 295.366 397.269 288.792 397.911 282.987C398.553 277.182 395.819 270.707 395.819 270.707Z" fill="#D8D8D8"/>
</g>
<path fill-rule="evenodd" clip-rule="evenodd" d="M366.533 289.945C365.482 289.468 363.078 287.483 361.723 289.422C359.165 289.169 356.45 289.177 355.274 289.331C353.268 289.592 351.451 290.692 350.457 290.869C349.462 291.045 350.817 292.551 352.058 292.102C353.299 291.653 355.512 291.052 356.194 291.155C356.877 291.257 358.213 291.62 358.213 291.62C358.213 291.62 355.657 292.162 355.052 292.723C354.447 293.285 354.546 295.432 354.12 296.308C353.694 297.184 355.118 297.328 355.41 296.656C355.41 296.656 355.573 297.476 355.63 297.85C355.703 298.332 355.679 298.913 355.875 298.968C356.398 299.112 357.353 298.54 357.098 297.338C357.098 297.338 357.605 297.798 358.054 298.438C358.502 299.078 359.198 298.217 358.986 297.521C358.773 296.825 358.433 296.355 358.433 296.355C358.433 296.355 362.68 297.913 364.346 297.891C366.012 297.87 368.105 296.326 368.105 296.326L381.481 300.698L383.032 294.728C383.032 294.728 369.076 291.099 366.533 289.945Z" fill="#FFBBB0"/>
<mask id="mask13_109_66" style="mask-type:alpha" maskUnits="userSpaceOnUse" x="350" y="288" width="34" height="13">
<path fill-rule="evenodd" clip-rule="evenodd" d="M366.533 289.945C365.482 289.468 363.078 287.483 361.723 289.422C359.165 289.169 356.45 289.177 355.274 289.331C353.268 289.592 351.451 290.692 350.457 290.869C349.462 291.045 350.817 292.551 352.058 292.102C353.299 291.653 355.512 291.052 356.194 291.155C356.877 291.257 358.213 291.62 358.213 291.62C358.213 291.62 355.657 292.162 355.052 292.723C354.447 293.285 354.546 295.432 354.12 296.308C353.694 297.184 355.118 297.328 355.41 296.656C355.41 296.656 355.573 297.476 355.63 297.85C355.703 298.332 355.679 298.913 355.875 298.968C356.398 299.112 357.353 298.54 357.098 297.338C357.098 297.338 357.605 297.798 358.054 298.438C358.502 299.078 359.198 298.217 358.986 297.521C358.773 296.825 358.433 296.355 358.433 296.355C358.433 296.355 362.68 297.913 364.346 297.891C366.012 297.87 368.105 296.326 368.105 296.326L381.481 300.698L383.032 294.728C383.032 294.728 369.076 291.099 366.533 289.945Z" fill="white"/>
</mask>
<g mask="url(#mask13_109_66)">
<path fill-rule="evenodd" clip-rule="evenodd" d="M355.411 296.656C355.411 296.656 354.864 293.623 356.068 293.105C357.273 292.587 357.962 292.331 357.962 292.331C357.962 292.331 355.608 292.361 355.2 293.177C355.017 293.542 354.504 296.104 354.629 297.023C355.219 297.091 355.411 296.656 355.411 296.656Z" fill="#F29E98"/>
<path fill-rule="evenodd" clip-rule="evenodd" d="M357.1 297.313C357.1 297.313 355.69 295.372 356.001 294.644C356.313 293.917 358.115 293.315 358.115 293.315C358.115 293.315 356.489 293.128 355.861 294.186C355.527 294.749 355.92 295.896 356.421 297.521C356.548 297.93 356.571 298.796 356.571 298.796C356.571 298.796 356.942 298.569 357.052 298.088C357.163 297.607 357.1 297.313 357.1 297.313Z" fill="#F29E98"/>
<path fill-rule="evenodd" clip-rule="evenodd" d="M361.723 289.422L363.609 289.489L361.697 288.271L361.723 289.422Z" fill="#F29E98"/>
</g>
<path fill-rule="evenodd" clip-rule="evenodd" d="M373.977 291.188C373.948 291.196 371.758 289.396 369.946 291.187C368.134 292.977 368.345 297.554 371.037 297.51C373.728 297.466 374.006 291.179 373.977 291.188Z" fill="#D8D8D8"/>
<path fill-rule="evenodd" clip-rule="evenodd" d="M395.249 268.752C395.249 268.752 391.856 272.637 392.063 281.742C392.269 290.846 391.109 293.429 391.109 293.429C391.109 293.429 378.16 292.723 375.35 291.095C372.54 289.467 370.934 292.768 370.705 294.775C370.477 296.782 369.963 299.19 375.578 300.918C381.193 302.645 396.402 304.57 399.03 300.031C401.658 295.493 401.809 280.086 400.687 276.409C399.565 272.733 395.249 268.752 395.249 268.752Z" fill="#FFFEFE"/>
<mask id="mask14_109_66" style="mask-type:alpha" maskUnits="userSpaceOnUse" x="370" y="268" width="32" height="35">
<path fill-rule="evenodd" clip-rule="evenodd" d="M395.249 268.752C395.249 268.752 391.856 272.637 392.063 281.742C392.269 290.846 391.109 293.429 391.109 293.429C391.109 293.429 378.16 292.723 375.35 291.095C372.54 289.467 370.934 292.768 370.705 294.775C370.477 296.782 369.963 299.19 375.578 300.918C381.193 302.645 396.402 304.57 399.03 300.031C401.658 295.493 401.809 280.086 400.687 276.409C399.565 272.733 395.249 268.752 395.249 268.752Z" fill="white"/>
</mask>
<g mask="url(#mask14_109_66)">
<path fill-rule="evenodd" clip-rule="evenodd" d="M401.145 278.671C401.145 278.671 400.713 280.529 400.919 289.634C400.411 294.576 400.031 301.271 395.473 301.857C390.916 302.444 385.112 302.682 378.714 301.199C372.317 299.716 371.186 297.566 370.146 297.592C369.918 299.6 377.485 308.543 383.1 310.27C388.715 311.998 403.924 313.922 406.552 309.383C409.18 304.845 409.331 289.438 408.209 285.762C407.087 282.085 401.145 278.671 401.145 278.671Z" fill="#D8D8D8"/>
</g>
<path fill-rule="evenodd" clip-rule="evenodd" d="M416.523 256.766C412.288 256.544 409.035 252.928 409.257 248.69C409.479 244.451 413.091 241.196 417.326 241.418C421.561 241.641 424.815 245.256 424.593 249.495C424.371 253.733 420.758 256.988 416.523 256.766Z" fill="#181E36"/>
<path fill-rule="evenodd" clip-rule="evenodd" d="M415.603 397.247C415.209 396.708 414.898 396.691 413.663 397.641C412.198 398.767 406.778 400.556 404.446 401.033C402.954 401.338 399.242 401.334 399.392 400.767C399.55 400.169 400.209 400.153 400.378 399.965C400.707 399.598 394.694 402.109 393.331 403.088C391.968 404.066 391.87 405.933 398.542 407.735C399.221 407.919 402.993 407.672 404.302 407.231C407.239 406.244 408.611 404.286 411.707 404.052L412.737 410.068C412.737 410.068 413.703 410.661 414.515 409.963C414.515 409.963 416.123 401.236 416.198 399.8C416.273 398.364 415.81 397.529 415.603 397.247Z" fill="#181E36"/>
<path fill-rule="evenodd" clip-rule="evenodd" d="M136.922 471.676L180.871 497.076L175.222 499.511V508.744L247.249 512.116V502.916L240.323 472.074L227.235 479.68L175.222 450.208L136.922 462.076V471.676Z" fill="#80B1FF"/>
<path fill-rule="evenodd" clip-rule="evenodd" d="M136.922 462.075L188.238 492.027L175.222 499.511L247.248 502.916L240.322 462.478L227.235 470.159L175.222 440.395L136.922 462.075Z" fill="#CBDFFF"/>
<path fill-rule="evenodd" clip-rule="evenodd" d="M176.778 429.587L227.931 459.624L266.86 437.23V429.234L214.956 407.844L227.931 400.446V392.45L160.128 394.4V439.106L176.778 429.587Z" fill="url(#paint26_linear_109_66)"/>
<path fill-rule="evenodd" clip-rule="evenodd" d="M176.778 421.591L227.931 451.628L266.859 429.234L214.956 399.848L227.931 392.45L160.128 386.404V431.11L176.778 421.591Z" fill="#80B1FF"/>
<defs>
<linearGradient id="paint0_linear_109_66" x1="553.277" y1="222.902" x2="120.956" y2="253.34" gradientUnits="userSpaceOnUse">
<stop stop-color="#7187B5"/>
<stop offset="1" stop-color="#BFCDED"/>
</linearGradient>
<linearGradient id="paint1_linear_109_66" x1="217.067" y1="472.105" x2="582.341" y2="420.106" gradientUnits="userSpaceOnUse">
<stop stop-color="#C4D5FF"/>
<stop offset="0.499857" stop-color="#C9DDFF"/>
<stop offset="0.5319" stop-color="#E1ECFF"/>
<stop offset="1" stop-color="#D5E1FF"/>
</linearGradient>
<linearGradient id="paint2_linear_109_66" x1="466.052" y1="156.926" x2="129.824" y2="376.358" gradientUnits="userSpaceOnUse">
<stop stop-color="#C0E1FF"/>
<stop offset="1" stop-color="white"/>
</linearGradient>
<linearGradient id="paint3_linear_109_66" x1="273.698" y1="427.402" x2="585.967" y2="398.451" gradientUnits="userSpaceOnUse">
<stop stop-color="#6D94E7"/>
<stop offset="1" stop-color="#7E9EEF"/>
</linearGradient>
<linearGradient id="paint4_linear_109_66" x1="352.139" y1="330.806" x2="339.97" y2="410.728" gradientUnits="userSpaceOnUse">
<stop stop-color="#6D7FE7"/>
<stop offset="1" stop-color="#4E60CD"/>
</linearGradient>
<linearGradient id="paint5_linear_109_66" x1="385.449" y1="306.78" x2="181.727" y2="346.652" gradientUnits="userSpaceOnUse">
<stop stop-color="#4F6FCE"/>
<stop offset="1" stop-color="#3B3B5D"/>
</linearGradient>
<linearGradient id="paint6_linear_109_66" x1="508.775" y1="-70.8951" x2="239.324" y2="5.84592" gradientUnits="userSpaceOnUse">
<stop stop-color="#C0E1FF"/>
<stop offset="1" stop-color="white"/>
</linearGradient>
<linearGradient id="paint7_linear_109_66" x1="554.009" y1="-25.2796" x2="230.33" y2="3.19256" gradientUnits="userSpaceOnUse">
<stop stop-color="#4F6FCE"/>
<stop offset="1" stop-color="#3B3B5D"/>
</linearGradient>
<linearGradient id="paint8_linear_109_66" x1="538.691" y1="256.864" x2="545.552" y2="270.309" gradientUnits="userSpaceOnUse">
<stop stop-color="#FB6464"/>
<stop offset="1" stop-color="#FA4E40"/>
</linearGradient>
<linearGradient id="paint9_linear_109_66" x1="245.864" y1="279.428" x2="307.291" y2="308.876" gradientUnits="userSpaceOnUse">
<stop stop-color="#15539E"/>
<stop offset="1" stop-color="#092965"/>
</linearGradient>
<linearGradient id="paint10_linear_109_66" x1="299.082" y1="240.088" x2="287.008" y2="198.463" gradientUnits="userSpaceOnUse">
<stop stop-color="#15539E"/>
<stop offset="1" stop-color="#092965"/>
</linearGradient>
<linearGradient id="paint11_linear_109_66" x1="281.43" y1="191.838" x2="276.909" y2="184.274" gradientUnits="userSpaceOnUse">
<stop stop-color="#BED4EB"/>
<stop offset="1" stop-color="#0041AE"/>
</linearGradient>
<linearGradient id="paint12_linear_109_66" x1="278.251" y1="260.7" x2="252.84" y2="244.692" gradientUnits="userSpaceOnUse">
<stop stop-color="#1B4A7A"/>
<stop offset="1" stop-color="#0041AE"/>
</linearGradient>
<linearGradient id="paint13_linear_109_66" x1="276.131" y1="178.516" x2="274.717" y2="181.139" gradientUnits="userSpaceOnUse">
<stop stop-color="#F3A6A6"/>
<stop offset="1" stop-color="#FCCBCB"/>
</linearGradient>
<linearGradient id="paint14_linear_109_66" x1="290.19" y1="190.556" x2="285.846" y2="231.825" gradientUnits="userSpaceOnUse">
<stop stop-color="#15539E"/>
<stop offset="1" stop-color="#092965"/>
</linearGradient>
<linearGradient id="paint15_linear_109_66" x1="268.93" y1="198.592" x2="262.065" y2="189.358" gradientUnits="userSpaceOnUse">
<stop stop-color="#BED4EB"/>
<stop offset="1" stop-color="#CEDBF0"/>
</linearGradient>
<linearGradient id="paint16_linear_109_66" x1="282.77" y1="178.139" x2="277.236" y2="230.715" gradientUnits="userSpaceOnUse">
<stop stop-color="#15539E"/>
<stop offset="1" stop-color="#092965"/>
</linearGradient>
<linearGradient id="paint17_linear_109_66" x1="296.795" y1="177.151" x2="291.392" y2="228.473" gradientUnits="userSpaceOnUse">
<stop stop-color="#15539E"/>
<stop offset="1" stop-color="#092965"/>
</linearGradient>
<linearGradient id="paint18_linear_109_66" x1="276.272" y1="165.207" x2="284.743" y2="179.166" gradientUnits="userSpaceOnUse">
<stop stop-color="#FCCBCB"/>
<stop offset="1" stop-color="#E77575"/>
</linearGradient>
<linearGradient id="paint19_linear_109_66" x1="272.888" y1="158.81" x2="273.794" y2="168.635" gradientUnits="userSpaceOnUse">
<stop stop-color="#0C3564"/>
<stop offset="1" stop-color="#BFA5B1"/>
</linearGradient>
<linearGradient id="paint20_linear_109_66" x1="267.284" y1="167.194" x2="265.187" y2="166.871" gradientUnits="userSpaceOnUse">
<stop stop-color="#FCCBCB"/>
<stop offset="1" stop-color="#E77575"/>
</linearGradient>
<linearGradient id="paint21_linear_109_66" x1="297.279" y1="254.66" x2="297.956" y2="257.295" gradientUnits="userSpaceOnUse">
<stop stop-color="#F3A6A6"/>
<stop offset="1" stop-color="#FCCBCB"/>
</linearGradient>
<linearGradient id="paint22_linear_109_66" x1="277.609" y1="253.852" x2="292.255" y2="213.18" gradientUnits="userSpaceOnUse">
<stop stop-color="#15539E"/>
<stop offset="1" stop-color="#092965"/>
</linearGradient>
<linearGradient id="paint23_linear_109_66" x1="402.927" y1="249.217" x2="404.45" y2="249.152" gradientUnits="userSpaceOnUse">
<stop stop-color="#F8A29B"/>
<stop offset="1" stop-color="#C47770"/>
</linearGradient>
<linearGradient id="paint24_linear_109_66" x1="429.197" y1="293.956" x2="426.124" y2="352.497" gradientUnits="userSpaceOnUse">
<stop stop-color="#8EBBFF"/>
<stop offset="1" stop-color="#5586FF"/>
</linearGradient>
<linearGradient id="paint25_linear_109_66" x1="423.769" y1="261.927" x2="421.709" y2="301.167" gradientUnits="userSpaceOnUse">
<stop stop-color="white"/>
<stop offset="1" stop-color="#F0F0F0"/>
</linearGradient>
<linearGradient id="paint26_linear_109_66" x1="262.889" y1="379.421" x2="128.369" y2="403.264" gradientUnits="userSpaceOnUse">
<stop stop-color="#4F6FCE"/>
<stop offset="1" stop-color="#3B3B5D"/>
</linearGradient>
</defs>
</svg>
