<svg width="1110" height="288" viewBox="0 0 1110 288" fill="none" xmlns="http://www.w3.org/2000/svg">
<mask id="mask0_308_579" style="mask-type:alpha" maskUnits="userSpaceOnUse" x="0" y="0" width="1110" height="288">
<rect width="1110" height="288" rx="16" fill="#C4C4C4"/>
</mask>
<g mask="url(#mask0_308_579)">
<rect width="1110" height="288" rx="16" fill="#1F34E9"/>
<path opacity="0.15" d="M730.287 206.714C612.471 122.077 450.106 220.981 321.429 154C254.479 119.15 240.901 87.7019 192.858 35.7143C162.043 2.3692 159.105 -3.43581 129.858 -27.2857C100.61 -51.1356 47.5723 -78.7142 47.5723 -78.7142V-166.143H1432.29V416.286H1101.86C1101.86 416.286 925.373 419.035 840.858 346.857C789.455 302.958 790.597 250.041 730.287 206.714Z" fill="white"/>
<path opacity="0.15" d="M777.857 178.714C660.041 94.0766 497.676 214.838 369 147.857C302.049 113.007 267 -10.5 247.5 -47C236.815 -67 220.5 -85 194 -99C167.5 -113 95.1426 -106.714 95.1426 -106.714V-194.143H1479.86V351.714H1170C1170 351.714 952.714 358.714 882 308.571C820.285 264.81 838.168 222.041 777.857 178.714Z" fill="white"/>
</g>
<path d="M298.207 115.006V77.0001H357.793V115.006H298.207Z" fill="#FF9201"/>
<path d="M357.793 115.006L332.906 95.7321C329.865 93.641 325.838 93.63 322.785 95.7023C314.233 101.508 298.207 115.006 298.207 115.006H357.793Z" fill="#BCDCFF"/>
<path d="M323.761 95.144H323.586L298.206 77.0062L298.207 115.006C298.207 115.006 314.233 101.508 322.784 95.7023C323.099 95.4894 323.428 95.3128 323.761 95.144Z" fill="#A7D0FE"/>
<path d="M332.414 95.144H331.892C332.237 95.3205 332.579 95.5081 332.905 95.7321L357.793 115.006V77.0062L332.414 95.144Z" fill="#A7D0FE"/>
<path d="M357.793 77.0062L332.906 96.2801C329.864 98.3711 325.838 98.3822 322.785 96.3099C314.233 90.5046 298.207 77.0062 298.207 77.0062H357.793Z" fill="white"/>
<g clip-path="url(#clip0_308_579)">
<path d="M333.862 126.739L288.274 82.1731C282.583 76.6076 273.417 76.6076 267.725 82.1731L222.138 126.739V198H333.862V126.739Z" fill="#FF9201"/>
<rect x="238" y="93.9999" width="80" height="104" rx="4" fill="white"/>
<g clip-path="url(#clip1_308_579)">
<path fill-rule="evenodd" clip-rule="evenodd" d="M258 129.5C262.142 129.5 265.5 126.142 265.5 122C265.5 117.858 262.142 114.5 258 114.5C253.858 114.5 250.5 117.858 250.5 122C250.5 126.142 253.858 129.5 258 129.5ZM258 134C264.628 134 270 128.627 270 122C270 115.373 264.628 110 258 110C251.373 110 246 115.373 246 122C246 128.627 251.373 134 258 134Z" fill="#2EC5CE"/>
<rect x="274" y="115" width="36" height="6" rx="0.5" fill="#2EC5CE"/>
<rect opacity="0.4" x="274" y="124" width="16" height="5" rx="0.5" fill="#2EC5CE"/>
</g>
<path d="M333.862 198L287.199 161.861C281.497 157.941 273.947 157.92 268.222 161.805C252.188 172.69 222.138 198 222.138 198H333.862Z" fill="#FFDC81"/>
<path d="M270.051 160.759H269.724L222.138 127.655V198C222.138 198 252.188 172.69 268.22 161.805C268.81 161.406 269.428 161.075 270.051 160.759Z" fill="#FFCA00"/>
<path d="M286.276 160.759H285.298C285.945 161.09 286.587 161.441 287.197 161.861L333.862 198V127.655L286.276 160.759Z" fill="#FFB800"/>
</g>
<path d="M187.207 211.006V173H246.793V211.006H187.207Z" fill="#FF9201"/>
<path d="M246.793 211.006L221.906 191.732C218.865 189.641 214.838 189.63 211.785 191.702C203.233 197.508 187.207 211.006 187.207 211.006H246.793Z" fill="#BCDCFF"/>
<path d="M212.761 191.144H212.586L187.206 173.006L187.207 211.006C187.207 211.006 203.233 197.508 211.784 191.702C212.099 191.489 212.428 191.313 212.761 191.144Z" fill="#A7D0FE"/>
<path d="M221.414 191.144H220.892C221.237 191.321 221.579 191.508 221.905 191.732L246.793 211.006V173.006L221.414 191.144Z" fill="#A7D0FE"/>
<path d="M246.793 173.006L221.906 192.28C218.864 194.371 214.838 194.382 211.785 192.31C203.233 186.505 187.207 173.006 187.207 173.006H246.793Z" fill="white"/>
<circle cx="330" cy="186" r="24" fill="white"/>
<g opacity="0.4">
<path d="M336 178.706C336 182.252 333.122 185.126 329.571 185.126C326.021 185.126 323.143 182.252 323.143 178.706C323.143 175.16 326.021 172.286 329.571 172.286C333.122 172.286 336 175.16 336 178.706Z" fill="#2EC5CE"/>
<path d="M342 199.679C342 199.679 333.913 199.759 328.714 199.679C324.517 199.614 318 199.679 318 199.679C318 199.679 319.714 186.838 330 186.838C340.286 186.838 342 199.679 342 199.679Z" fill="#2EC5CE"/>
</g>
<circle cx="348" cy="168" r="10" fill="#2EC5CE"/>
<path fill-rule="evenodd" clip-rule="evenodd" d="M348 163.333C348.322 163.333 348.583 163.595 348.583 163.917V167.417H352.083C352.405 167.417 352.667 167.678 352.667 168C352.667 168.322 352.405 168.583 352.083 168.583H348.583V172.083C348.583 172.406 348.322 172.667 348 172.667C347.678 172.667 347.417 172.406 347.417 172.083V168.583H343.917C343.594 168.583 343.333 168.322 343.333 168C343.333 167.678 343.594 167.417 343.917 167.417H347.417V163.917C347.417 163.595 347.678 163.333 348 163.333Z" fill="white"/>
<defs>
<clipPath id="clip0_308_579">
<rect width="120" height="120" fill="white" transform="translate(218 78)"/>
</clipPath>
<clipPath id="clip1_308_579">
<rect width="64" height="24" fill="white" transform="translate(246 110)"/>
</clipPath>
</defs>
</svg>
